<?xml version="1.0" encoding="utf-8"?>
<!-- Generator: Adobe Illustrator 21.1.0, SVG Export Plug-In . SVG Version: 6.00 Build 0)  -->
<svg version="1.1" xmlns="http://www.w3.org/2000/svg" xmlns:xlink="http://www.w3.org/1999/xlink" x="0px" y="0px"
	 viewBox="0 0 1280 720" style="enable-background:new 0 0 1280 720;" xml:space="preserve">
<style type="text/css">
	.st0{display:none;}
	.st1{display:inline;}
	.st2{display:inline;clip-path:url(#SVGID_2_);}
	.st3{display:none;opacity:0.4;fill:url(#SVGID_3_);}
	.st4{display:inline;fill:url(#SVGID_4_);}
	.st5{display:inline;opacity:0.1;}
	.st6{display:inline;fill:url(#SVGID_5_);}
	.st7{fill:#2B3A92;}
	.st8{opacity:0.7;}
	.st9{fill:#6771B5;}
	.st10{opacity:0.6;}
	.st11{fill:#A7B0D9;}
	.st12{fill:#0B1338;}
	.st13{fill:#FFDC5A;}
	.st14{fill:#FBD846;}
	.st15{fill:#FFD459;}
	.st16{fill:#FCB638;}
	.st17{fill:#FFFFFF;}
	.st18{opacity:0.5;}
	.st19{opacity:0.6;fill:#FFF0B7;}
	.st20{opacity:0.6;fill:url(#SVGID_6_);}
	.st21{fill:url(#SVGID_7_);}
	.st22{fill:url(#SVGID_8_);}
	.st23{opacity:0.48;fill:#9C633E;}
	.st24{fill:url(#SVGID_9_);}
	.st25{fill:url(#SVGID_10_);}
	.st26{fill:url(#SVGID_11_);}
	.st27{fill:url(#SVGID_12_);}
	.st28{fill:url(#SVGID_13_);}
	.st29{fill:url(#SVGID_14_);}
	.st30{fill:url(#SVGID_15_);}
	.st31{fill:url(#SVGID_16_);}
	.st32{fill:url(#SVGID_17_);}
	.st33{fill:url(#SVGID_18_);}
	.st34{fill:url(#SVGID_19_);}
	.st35{fill:url(#SVGID_20_);}
	.st36{fill:url(#SVGID_21_);}
	.st37{fill:url(#SVGID_22_);}
	.st38{opacity:0.57;fill:url(#SVGID_23_);}
	.st39{fill:url(#SVGID_24_);}
	.st40{fill:url(#SVGID_25_);}
	.st41{fill:url(#SVGID_26_);}
	.st42{fill:url(#SVGID_27_);}
	.st43{fill:url(#SVGID_28_);}
	.st44{fill:url(#SVGID_29_);}
	.st45{fill:url(#SVGID_30_);}
	.st46{fill:url(#SVGID_31_);}
	.st47{fill:url(#SVGID_32_);}
	.st48{opacity:0.56;fill:#9C633E;}
	.st49{font-family:'ZillaSlab-SemiBoldItalic';}
	.st50{font-size:100px;}
	.st51{font-size:63.21px;}
	.st52{font-family:'ZillaSlabHighlight-Bold';}
	.st53{font-size:36.6338px;}
	.st54{font-family:'ZillaSlab-Bold';}
	.st55{font-size:36px;}
</style>
<g id="Layer_1">
	<g>
		<defs>
			<rect id="XMLID_1_" x="-23.9" width="1305.3" height="721.2"/>
		</defs>
		<use xlink:href="#XMLID_1_"  style="overflow:visible;fill:#FFE46A;"/>
		<clipPath id="XMLID_3_">
			<use xlink:href="#XMLID_1_"  style="overflow:visible;"/>
		</clipPath>
	</g>
	<g class="st0">
		<defs>
			<rect id="SVGID_1_" x="-24.2" y="-235.3" width="1305.7" height="1305.7"/>
		</defs>
		<clipPath id="SVGID_2_" class="st1">
			<use xlink:href="#SVGID_1_"  style="overflow:visible;"/>
		</clipPath>
		<g class="st2">
			
				<radialGradient id="SVGID_3_" cx="943.7762" cy="398.8197" r="276.1136" gradientTransform="matrix(1 -5.300000e-03 5.800000e-03 0.9097 -8.3815 -1.7441)" gradientUnits="userSpaceOnUse">
				<stop  offset="0" style="stop-color:#F7BFB1"/>
				<stop  offset="0.1081" style="stop-color:#F2BBAD;stop-opacity:0.8919"/>
				<stop  offset="0.2365" style="stop-color:#E4B0A3;stop-opacity:0.7635"/>
				<stop  offset="0.3752" style="stop-color:#CC9E92;stop-opacity:0.6248"/>
				<stop  offset="0.5212" style="stop-color:#AA847B;stop-opacity:0.4788"/>
				<stop  offset="0.6731" style="stop-color:#7F645D;stop-opacity:0.3269"/>
				<stop  offset="0.8297" style="stop-color:#4B3C38;stop-opacity:0.1703"/>
				<stop  offset="0.9874" style="stop-color:#0D0D0D;stop-opacity:1.257086e-02"/>
				<stop  offset="1" style="stop-color:#080909;stop-opacity:0"/>
			</radialGradient>
			<path class="st3" d="M1213.8,354.6c0.9,138.7-122,251.8-274.5,252.6c-152.5,0.8-276.8-111-277.7-249.7
				c-0.9-138.7,122-251.8,274.5-252.6C1088.6,104.1,1212.9,215.9,1213.8,354.6z"/>
			<g class="st0">
				
					<linearGradient id="SVGID_4_" gradientUnits="userSpaceOnUse" x1="1070.7356" y1="260.7743" x2="1070.7356" y2="23.523" gradientTransform="matrix(0.946 0.3242 -0.3242 0.946 132.2725 -305.9179)">
					<stop  offset="0" style="stop-color:#A7B0D9"/>
					<stop  offset="1" style="stop-color:#BDC1DD"/>
				</linearGradient>
				<path class="st4" d="M1211.3,214.1c-21.2,62-88.7,95-150.7,73.8c-62-21.2-95-88.7-73.8-150.7c21.2-62,88.7-95,150.7-73.8
					C1199.5,84.7,1232.6,152.2,1211.3,214.1z"/>
				<g class="st5">
					
						<image style="overflow:visible;" width="1291" height="1290" xlink:href="45EEA114BD2843.png"  transform="matrix(0.24 0 0 0.24 944.4 20.88)">
					</image>
				</g>
				
					<linearGradient id="SVGID_5_" gradientUnits="userSpaceOnUse" x1="1070.7108" y1="260.7743" x2="1070.7108" y2="61.8258" gradientTransform="matrix(0.946 0.3242 -0.3242 0.946 132.2725 -305.9179)">
					<stop  offset="0" style="stop-color:#8B96CB"/>
					<stop  offset="1" style="stop-color:#BDC1DD"/>
				</linearGradient>
				<path class="st6" d="M1115.7,223.8c-62-21.2-95-88.7-73.8-150.7c0.2-0.6,0.4-1.1,0.6-1.7c-25.3,13.7-45.7,36.5-55.7,65.8
					c-21.2,62,11.8,129.4,73.8,150.7c61.4,21,128.1-11.2,150-72C1182.5,231.1,1148.4,235,1115.7,223.8z"/>
			</g>
			<g>
				<path class="st7" d="M1281.5,417.7c-10.8,3.5-18.2,9-18.2,9h6.8v18.2l-7.7-5.8v13.5h-8.7v-7.7H1242v7.7h-33.9l1,14.5l5.4,0v35.8
					l-8,0v-16.1l-9.6-0.1v-14.6l-62.6,0.2v8h-9.6v11.2h-14.4v-24.1h-22.5v27.4l-24.1-0.1v-19.3l-41.7-1.6v-27.3l-49.8-1.6v-18.5
					h-16.1l-7.8,20.1H940v2.8h-39.7v-37.3v-5.3v-36h-37.5v-1.3c-0.2-2.4-0.4-4.7-0.8-7v-73.5H707.6v60.9c-1.7,5.3-3,10.8-3.6,16.5v3
					h-0.3h-4.6h-23.2h-9.7v37.3v5.3v37.3h-47.9v26.2l-92.4,1.5V231.6c-75.4,6.4-57.8,139.6-57.8,139.6h-9.6v-57.8h-41.7v142.9h-9.6
					v-49.8l-20.9,3.2v-9.6l-22.5-1.6v96.3h-24.1V377.7h-67.4v75.4H253v-49.8H237v-49.8h-25.7v48.2h-44.9v-24.1h-14.4v25.7h-38.5
					v218.3h505v3.5h329.9v-3.5h333.2V417.7z"/>
			</g>
			<g class="st8">
				
					<image style="overflow:visible;" width="5169" height="1942" xlink:href="45EEA114BD2841.png"  transform="matrix(0.24 0 0 0.24 77.28 195.36)">
				</image>
			</g>
			<path class="st9" d="M1227.7,342.2v170.7h-13.1v-6h-9v6h-6.7v-10.5l-6,4.5v-14.1h5.2c0,0-28.4-20.8-50.8,0h6.7l-0.7,14.8l-1.6,0
				v-1.5l-25.3,0.1l-0.1,6.7l-1.1,0.1l-8.6-0.1l-6-7.5l0,9.7l-15.9-0.3l-6.2-8.5l-6.3,8.9l-9.7,0v-14l-4.1,0v-14.7h5.3v-2.6h-5.3
				v-6.3h-2.6v6.3h-5.3v2.6h5.3V501l-3.7,0v-8.1c-4.5-21.5-30.6-22.5-30.6-22.5c-25.4,0-31.4,26.9-31.4,26.9h-5.6v-10.9h5.3v-2.6
				h-5.3v-6.3h-2.6v6.3h-5.3v2.6h5.3v10.9h-5.2v3v10.5l-9,0l-4.6-5.2l-5.1,5.2l-17.2-0.1v-5.2h-3.7v8.2l-11.2-0.1v-6.7l-27.8-0.2
				l0.2-13.9h6.7c-22.4-20.8-50.8,0-50.8,0h5.2v14.1l-6-4.5v10.5h-6.7v-6h-9v6h-26.2l0.7,11.2l4.1,0v27.6l-6.2,0v-12.4l-7.4,0V528
				l-48.4,0.1v6.2h-7.4v8.7h-11.2v-18.6h-17.4v21.1l-18.6-0.1v-14.9l-32.2-1.2v-21.1l-38.4-1.2v-14.3h-12.4l-6,15.5h-6.4v2.2h-30.6
				v-28.8v-4.1v-27.8h-29v-1c-1.8-26.6-20.5-48.7-45.5-55.4l-0.1-0.1l-0.1,0.1c-5.1-1.3-10.3-2.1-15.8-2.1s-10.8,0.8-15.8,2.1
				l-0.1-0.1l-0.1,0.1c-24.3,6.5-42.6,27.4-45.2,53v2.4h-0.3h-3.6h-17.9h-7.5v28.8v4.1v28.8h-37v20.2l-71.4,1.2V342.2
				c-58.3,5-44.6,107.9-44.6,107.9h-7.4v-44.6h-32.2v110.4h-7.4v-38.4l-16.1,2.5v-7.4l-17.4-1.2v74.4h-18.6V455H98.5v58.3H83.6
				v-38.4H71.2v-38.4H51.4v37.2H16.7V455H5.5v19.8h-29.8v168.6h390.1v2.7h254.9v-2.7h502h29h76v2.7h53.8v-304H1227.7z"/>
			<g class="st10">
				
					<image style="overflow:visible;" width="5742" height="1568" xlink:href="45EEA114BD2847.png"  transform="matrix(0.24 0 0 0.24 -60.24 306)">
				</image>
			</g>
			<path class="st11" d="M1226.7,638.2v-49.7h-7.9v-37.4c6.6-3.5,10.9-9.3,10.9-15.9c0-6.6-4.3-12.4-10.9-15.9v-24.8h2.7v-12h-4.9
				l-12.7-42.7l-12.7,42.7h-4.9v12h2.7v24.8c-6.6,3.5-10.9,9.3-10.9,15.9c0,6.6,4.3,12.4,10.9,15.9v37.4h-7.7V580v-1.2v-3.7h-4.9
				v3.7h-2.9v-3.7h-4.9v3.7h-2.9v-3.7h-4.8v3.7h-2.9v-3.7h-4.8v3.7h-2.9v-3.7h-4.9v3.7h-2.9v-3.7h-4.9v3.7h-2.9v-3.7h-4.8v3.7h-2.9
				v-3.7h-4.9v3.7h-2.9v-3.7h-4.8v3.7h-2.9v-3.7h-4.8v3.7h-2.9v-3.7h-4.9v3.7h-2.9v-3.7h-4.9v3.7h-2.9v-3.7h-4.9v3.7h-2.9v-3.7h-4.9
				v3.7h-2.9v-3.7h-4.8v3.7v1.2v8.5h-7.8v-37.4c6.6-3.5,10.9-9.3,10.9-15.9c0-6.6-4.3-12.4-10.9-15.9v-24.8h2.7v-12h-4.9l-12.7-42.7
				l-12.7,42.7h-4.9v12h2.7v24.8c-6.6,3.5-10.9,9.3-10.9,15.9c0,6.6,4.3,12.4,10.9,15.9v37.4h-7.9v49.7h-26.8v-31.3h7v-4.9h4.5v-9.9
				h-25.9v-53.4h14.4v-9h-24.6c-3-5.9-8-10.5-14-13.2V326h13.6v-23.8h-20.4v-0.4h-1.5c-0.2-0.4-0.5-0.8-0.9-1.1v-2.6
				c0.3,0,0.6,0.1,0.8,0.2c0.7,0.2,1.1-0.3,2.3-0.4c1.2-0.1,1.7,0.1,2.6-0.2c1-0.3,1.6-1.8,1.6-1.8s-0.4-1-0.7-1.9
				c-0.3-1-1.4-1.5-1.9-2.6c-0.5-1-2.2-5-2.2-5s1.2-0.9,1.1-1.4c-0.1-0.4-0.7-0.2-1.4-0.8c-0.7-0.6-1.1-3.9-1.1-3.9s1,0.6,1.5,0.7
				c0.4,0.1,0.6-0.3,0.6-0.9c-0.1-0.6-0.1-0.6,0-1c0-0.1,0-0.3,0-0.4c1.2-0.1,2.7-0.3,4.3-1.2c3.7-1.9,5.3-5.4,5.3-6.2
				c0-0.7-1.4-0.1-4.3,0c-1.6,0.1-3.7-0.4-5.3-0.8l0,0l-0.1,0c-0.1,0-0.1,0-0.2,0v0l-0.3-0.1c0,0,0,0,0,0c-0.2-0.1-0.4-0.1-0.6-0.2
				c0.2-0.8,0.4-1.8,0.4-2.4c0,0,0-0.1,0-0.1c-0.5-0.1-1-0.4-1.4-1v0c-0.2-0.2-0.6-0.6-1-0.6c-0.6-0.1-1.8,1-1.8,1s0-0.7-0.3-0.7
				c-0.2,0-0.4,0.5-0.4,0.5s-0.3-0.6-0.9-0.6c-0.6,0-0.9,0.5-1.1,0.8c-0.2,0.2-0.1,0.3,0.1,0.2c0.2-0.1,0.6-0.2,0.6-0.2
				s0.3,0.4,0.5,0.4c0.2,0,0.4,0.2,0.5,0.5c0,0.2,0,0.5,0,0.5s-0.6,0.1-0.8,0.5c-0.2,0.4-0.3,0.9-0.3,1.1c0,0.2-0.5,1.1-0.4,1.5
				c0.1,0.5,0.1,0.9,0.3,1.1c0.2,0.2,0.5,0.4,0.3,0.6c-0.2,0.1-0.5,0.2-1-0.2c-0.4-0.4-0.9-0.8-1.2-1c0,0,0,0,0,0
				c-0.4-0.9-0.8-1.7-1.2-1.9c-0.5-0.3-1.2,0-2.3,0.4c0,0-0.3-1.6-0.7-2.5c-0.3-1-0.7-1.5-0.6-1.9c0.1-0.4,0.3-0.6,0.3-0.9
				c0-0.1,0-0.3-0.2-0.5c0.1,0,0.4-0.2,0.5-0.4c0.2-0.2,0.7-0.7,0.5-0.8c-0.1-0.1,0.1-0.9,0.1-0.9c-0.2-0.1-0.4-1.2-0.4-1.2
				c-0.2,0.2-0.6-0.6-0.6-0.6l-0.6-0.1c0,0-0.8-0.1-0.9,0.2c-0.1,0.2-0.3,0.1-0.5,0.3c-0.2,0.2-0.4,0.1-0.4,0.5
				c-0.1,0.4-0.2,0.6-0.1,0.9c0.1,0.3-0.4,0.2-0.2,0.4c0.1,0.3,0.1,0.6,0.3,0.8c0.2,0.1-0.1,0.3,0.1,0.5c0.2,0.2,0.5,0.6,0.7,0.6
				c0.1,0.3,0.2,0.8,0.3,1c0.2,0.2,0.4,0.5,0.4,1c0,0.5,0,2,0.4,3c0.1,0.3,0.2,0.5,0.4,0.8c-1,0.2-2.2,0.3-3.1,0.2
				c-2.2-0.2-3.4-0.6-3.9-0.3c-0.5,0.3,2.2,5.9,5.9,6.4c1.5,0.2,2.3,0.2,2.9,0.2c0.2,0.7,0.8,1.9,1.8,2.7c0.3,0.2,0.6,0.3,0.9,0.4
				c-0.2,0.4-0.4,0.9-0.5,1.7c-0.1,1-1.1,3.4-1.2,4c0,0.6,1.2,1.2,1.2,1.2s0,1.2-0.5,2.6c-0.4,1.4-1.7,3.6-2.6,4.6c-1,1-1,2.3-0.5,3
				c0.5,0.7,1.6,0.1,1.6,0.1s0.4,0.5,1.1,0.9c0.6,0.5,1.1,0.1,1.8,0c0.3-0.1,0.6,0,0.9,0.1v1.9c-0.5,0.3-0.9,0.8-1.1,1.3h-1.3v0.4
				H921V326h13.6v190.5c-6.1,2.7-11,7.3-14,13.2h-24.6v9h14.4v53.4h-25.9v9.9h4.5v4.9h7v31.3h-18.6h-2.9v-2.8h-3.7V527.7h2.7v-3.6
				h2.2v-4.4h-3.1v-1.7h1.5v-3.2h-1.5v-2.3h1.5v-3.2h-2.5v-5.3h1.4v-1.3h6.5v-6.4h2.1v-3.4h2.8v-3.4h-12.8v-4h-7v-5.1h2.2v-5.8h3.2
				v-2.3h4.4v-4.1H768.1v-1.3h3.2v-3h-2.6v-3h-6.2c0.4-1,0.1-2.6,0.2-3.7c0-0.9,0.4-2.1,0.3-3.1c0-0.4-0.2-1-0.3-1.3
				c-0.1,0-0.9-0.3-0.9-0.4c-0.7,0.2-0.3-1.7-0.3-1.8c0-1.6,1.5-3.6-0.1-4.8c-0.4-0.3-0.4-1.3-0.7-1.7c-1.3-0.5,1.2-1.8,1.3-1.9
				c0.4-0.3,2.4-1.2,1.6-2.2c-0.7-0.9-0.1-1.8-0.2-2.8c0-0.5,0.5-0.9,0.5-1.4c0-0.4-0.2-0.7-0.4-1c-0.3-1.1,0.5-1.2,0.8-2.1
				c-1.6,0.3-2.4-1.3-3.9-1c-1.2,0.3-2.5,1.8-3,2.8c-0.8,1.4-1.2,3.1-1.7,4.6c-0.2,0.8-0.8,2.3-1.4,3.8c-0.6,1.5-4.8,1.4-6,3.1
				c-2.7,3.8,0.3,11.2,0.3,11.2c0.1,0.8-0.1,2.2-0.1,3.4h-3.6l0.1-4.2c2.4-6.7-1.7-13.9-1.7-13.9c-0.1-0.8-0.4-1.6-0.4-2.3
				c0.7-0.4,1.6-1.1,1.1-1.8c-0.1-0.2-0.2-0.3-0.3-0.5c0.3-0.8,0.2-1.4,0.1-1.7c0-0.2,0-0.3,0-0.5c0-0.5,0.5-0.9,0.5-1.4
				c0-0.4-0.2-0.7-0.4-1c-0.4-1.1,0.5-1.2,0.8-2.1c-1.6,0.3-2.4-1.3-3.9-1c-1.2,0.3-2.5,1.8-3,2.8c-0.3,0.5-0.5,1-0.7,1.6
				c-0.1-0.5-0.2-0.9-0.4-1.4c-0.4-0.9-1.1-1.4-2.1-1.3c-1,0.1-1.2,0.9-1.1,1.8c0,0.4,0.1,0.9-0.5,1c-0.8,0-1.4-0.5-1.9-1.1
				c-0.5-0.5-0.3-1-0.1-1.5c0.3-0.5,0.7-1,0.9-1.6c0.3-0.7,0.1-1.4-0.6-1.7c-0.7-0.2-1-1.5-2.1-0.8c-0.7,0.5-1.2,0.6-1.5,0.3v-8.7
				c2.2-0.3,3.8-2.2,3.8-4.4c0-2.3-1.6-4.1-3.8-4.5l-0.2,0v-0.2c5.7-0.6,5-7,5-7s-3.4,0.9-4.5,3.1c-0.1-0.9-0.6-1.7-1.1-1.7h0
				c-0.5,0-1,0.7-1.1,1.7c-1.1-2.3-4.5-3.1-4.5-3.1s-0.7,6.4,5,7v0.2c-2.1,0.4-3.7,2.2-3.7,4.5c0,2.2,1.6,4.1,3.8,4.4v8.5
				c0,0,0,0,0,0c-1.7,1.3-2.7,3.3-4.5,4.4c-0.5,0.3-0.7,0.9-0.8,1.6c-0.4,2.7,0.1,5.4,0.4,8c0,0.4,0.1,3.2,0.1,3.2l-2.8-1.7
				c-0.1-0.2-0.2-0.3-0.2-0.5c0,0,0,0,0,0c0-1.4,0-2.6,0-3.3c0.1-1.6,0.3-3.4,0-4.9c-0.2-1.1-0.9-3-1.9-3.6c-1.4-0.9-2.6,0.4-4-0.4
				c0,0.9,0.8,1.3,0.1,2.2c-0.3,0.2-0.6,0.4-0.8,0.8c-0.1,0.5,0.2,1,0,1.5c-0.4,0.9-0.1,1.9-1.1,2.5c-1,0.7,0.1,2.3,0.6,2.9
				c0.5,0.6,1.8,0.5,1.8,0.5c-0.1,0.4-0.2,0.8-0.2,1.3c0,0-4.1,4.2-0.6,13.3l0.5,4.4c0,0.1,0.1,0.2,0.2,0.3h-4.8
				c0-1.2-0.2-2.6-0.1-3.4c0,0,3-7.4,0.3-11.3c-1.2-1.7-5.4-1.5-6-3.1c-0.6-1.5-1.1-3-1.4-3.8c-0.5-1.5-0.9-3.3-1.7-4.6
				c-0.6-1-1.9-2.5-3-2.8c-1.6-0.4-2.3,1.2-3.9,1c0.3,0.9,1.2,1,0.8,2.1c-0.3,0.3-0.4,0.6-0.4,1c0,0.5,0.5,0.9,0.5,1.4
				c0,1,0.5,1.9-0.2,2.8c-0.8,1,1.3,1.9,1.6,2.2c0.1,0.1,2.5,1.4,1.3,1.9c-0.3,0.4-0.3,1.5-0.7,1.7c-1.6,1.1-0.1,3.1-0.1,4.8
				c0,0.1,0.4,2-0.3,1.8c-0.1,0.2-0.8,0.4-0.9,0.4c-0.1,0.3-0.2,0.9-0.3,1.3c-0.1,0.9,0.3,2.1,0.3,3.1c0,1-0.2,2.7,0.2,3.7h-6.2v3
				h-2.6v3h3.2v1.3H582.2v4.1h4.4v2.3h3.2v5.8h2.2v5.1h-7v4h-12.8v3.4h2.8v3.4h2.1v6.4h6.5v1.3h1.4v5.3h-2.5v3.2h1.5v2.3h-1.5v3.2
				h1.5v1.7h-3.1v4.4h2.2v3.6h2.7v107.7h-3.7v2.8h-2.9h-38.9v-73.4h6.5v0V555v0l3.7-3.1l7.6-6.4h-17.4v-19.3h-2.9v-28.8v-3.2h0v-7
				c0-9.5-7.5-17.4-16.9-18v-7.7c1.6-0.9,2.7-2.6,2.7-4.5c0-2.4-1.6-4.4-3.8-5v-0.6h-2.8v0.6c-2.2,0.6-3.8,2.6-3.8,5
				c0,2,1.1,3.7,2.8,4.6v7.7c-9.4,0.6-16.9,8.5-16.9,18v7h0v3.2v28.8h-2.9v19.3h-28.4v-46v-10.8V488v-2.6v-4.7v-3.5h0v-6.6
				c0-26.5-19.9-48.5-45.6-51.9v-17h0v-7.1l-7.3-19.9h-0.4c1.7-1,2.8-2.8,2.8-4.9c0-2-1-3.7-2.5-4.7c-0.4-0.3-0.9-0.5-1.4-0.7V352
				h6.2v-3.4h-6.2v-7.1h-1.7H410v7.1h-6.2v3.4h6.2v12.5c-2.3,0.7-4,2.9-4,5.4c0,2.1,1.1,3.9,2.8,4.9h-0.4l-7.3,19.9v0h0v7.8v16.3
				c-25.6,3.4-45.6,25.4-45.6,51.9v6.6v3.5v4.7v2.6v0.7v10.8v46h-28.4v-19.3h-2.9v-28.8v-3.2v-3.2v-3.8c0-9.5-7.5-17.4-16.9-18v-7.7
				c1.6-0.9,2.7-2.6,2.7-4.5c0-2.4-1.6-4.4-3.8-5v-0.6h-2.8v0.6c-2.2,0.6-3.8,2.6-3.8,5c0,2,1.1,3.7,2.8,4.6v7.7
				c-9.4,0.6-16.9,8.5-16.9,18v7v3.2v28.8h-2.9v19.3h-17.4l11.3,9.5v9.8h6.5v73.4h-21.8l-7.2-247.4h9c0.9,0,1.6-0.7,1.6-1.6
				c0-0.9-0.7-1.6-1.6-1.6h-9.1l-0.3-8.7h9.3c0.9,0,1.6-0.7,1.6-1.6c0-0.9-0.7-1.6-1.6-1.6h-9.4l-0.2-7.9
				c12.3-3.2,21.4-14.4,21.4-27.7c0-10.6-5.7-19.8-14.3-24.8l-3.6-19.1h-5.6l-1.5-52.8h1.6c1.9,0,3.5-1.6,3.5-3.5
				c0-1.9-1.6-3.5-3.5-3.5h-1.8l-2.1-71.2h3.8c1.9,0,3.5-1.6,3.5-3.5c0-1.9-1.6-3.5-3.5-3.5h-4l-1.2-41.8l-1.2,41.8h-4
				c-1.9,0-3.5,1.6-3.5,3.5c0,1.9,1.6,3.5,3.5,3.5h3.8l-2.1,71.2h-1.8c-1.9,0-3.5,1.6-3.5,3.5c0,1.9,1.6,3.5,3.5,3.5h1.6l-1.5,52.8
				h-5.6l-3.6,19.1c-8.5,5-14.3,14.2-14.3,24.8c0,13.3,9.1,24.5,21.4,27.7l-0.2,7.9h-9.4c-0.9,0-1.6,0.7-1.6,1.6
				c0,0.9,0.7,1.6,1.6,1.6h9.3l-0.3,8.7h-9.1c-0.9,0-1.6,0.7-1.6,1.6c0,0.9,0.7,1.6,1.6,1.6h9l-7.2,247.4h-24.3v-49.7H199v-37.4
				c6.6-3.5,10.9-9.3,10.9-15.9c0-6.6-4.3-12.4-10.9-15.9v-24.8h2.7v-12h-4.9l-12.7-42.7l-12.7,42.7h-4.9v12h2.7v24.8
				c-6.6,3.5-10.9,9.3-10.9,15.9c0,6.6,4.3,12.4,10.9,15.9v37.4h-7.7V580v-1.2v-3.7h-4.9v3.7h-2.9v-3.7h-4.9v3.7h-2.9v-3.7h-4.8v3.7
				h-2.9v-3.7h-4.8v3.7h-2.9v-3.7h-4.9v3.7h-2.9v-3.7h-4.9v3.7h-2.9v-3.7h-4.8v3.7h-2.9v-3.7h-4.9v3.7h-2.9v-3.7h-4.8v3.7h-2.9v-3.7
				h-4.8v3.7h-2.9v-3.7h-4.9v3.7h-2.9v-3.7h-4.9v3.7h-2.9v-3.7h-4.9v3.7h-2.9v-3.7h-4.9v3.7h-2.9v-3.7h-4.8v3.7v1.2v8.5h-7.8v-37.4
				c6.6-3.5,10.9-9.3,10.9-15.9c0-6.6-4.3-12.4-10.9-15.9v-24.8h2.7v-12h-4.9l-12.7-42.7l-12.7,42.7H8.3v12H11v24.8
				c-6.6,3.5-10.9,9.3-10.9,15.9c0,6.6,4.3,12.4,10.9,15.9v37.4H3.1v49.7h-24.7v20.4h1305.7v-20.4H1226.7z M760.7,439.8
				c0.9,0.6,0,0.5,0.1,0.8c0-0.1,0.2,1,0.2,1c0.1,0.6,0.8,0.5,0.1,0.9c-0.2,0.2-0.4,0.2-0.5,0.1
				C760.4,441.9,760.3,440.4,760.7,439.8z M724.5,416c-0.3-0.5-0.3-0.8,0-1.3c0.8,0.1,1.2,0.1,1.8,0.1c0.1-0.7,0.1-1.1-0.1-1.8
				c0.5-0.3,0.7-0.3,1.3,0c-0.1,0.8-0.1,1.2-0.1,1.8c0.7,0.1,1.1,0.1,1.9-0.1c0.3,0.5,0.3,0.7,0,1.3c-0.8-0.1-1.2-0.1-1.9-0.1
				c-0.1,0.7-0.1,1.1,0.1,1.8c-0.5,0.3-0.8,0.3-1.3,0c0.1-0.8,0.1-1.2,0.1-1.8C725.7,415.9,725.3,415.9,724.5,416z M725.3,431.8
				c0.2-0.5,0.4-1.3,1.1-1.1c0.6,0.1,0.2,0.9,0.3,1.4c-0.1,0.4,0.3,1-0.2,1.3c-0.4,0.2-0.8,0-1.2-0.3
				C724.5,432.7,725.1,432.2,725.3,431.8z M696.1,442.6c-0.2,0.2-0.3,0.1-0.5-0.1c-0.7-0.4-0.1-0.3,0.1-0.9c0,0,0.2-1.1,0.2-1
				c0-0.4-0.9-0.2,0.1-0.8C696.3,440.4,696.2,441.9,696.1,442.6z M754.9,460.6c0.2-1.3,0.1-2.1,0.1-3.4c0-0.6,1.6-4.9,2.7-3.8
				c-0.2,0.5-1.3,1.6-0.2,1.5c1.1-0.1,1.7-0.2,2.4-0.9c0.5,0.8,1.2,0.7,1.5,1.8c0.3,1.2-0.4,2.4-0.2,3.5c0.1,0.6-0.7,1.1-0.9,1.8
				h-5.5C754.8,460.9,754.8,460.7,754.9,460.6z M695.3,459.2c0.2-1.2-0.5-2.3-0.2-3.5c0.3-1.1,1-1,1.5-1.8c0.8,0.7,1.3,0.9,2.4,0.9
				c1.2,0.1,0-1-0.2-1.5c1.1-1.1,2.7,3.2,2.7,3.8c0,1.3-0.1,2.1,0.1,3.4c0,0.1,0,0.3,0,0.5h-5.5C696,460.3,695.1,459.9,695.3,459.2z
				 M105.1,608c24.4,0,45.4,9.9,55,30.2h-110C59.7,617.9,80.7,608,105.1,608z M604.6,638.2v-2.8h-3.7V527.7h2.7v-3.6h2.2V522h29v2.2
				h2.3v3.6h2.7v107.7h-3.7v2.8h-2.9h-25.8H604.6z M658.6,638.2v-2.8h-3.7V527.7h2.7v-3.6h2.2V522h29v2.2h2.3v3.6h2.7v107.7H690v2.8
				h-2.9h-25.8H658.6z M712.5,638.2v-2.8h-3.7V527.7h2.7v-3.6h2.2V522h29v2.2h2.3v3.6h2.7v107.7H744v2.8h-2.9h-25.8H712.5z
				 M766.5,638.2v-2.8h-3.7V527.7h2.7v-3.6h2.2V522h29v2.2h2.3v3.6h2.7v107.7H798v2.8h-2.9h-25.8H766.5z M820.5,638.2v-2.8h-3.7
				V527.7h2.7v-3.6h2.2V522h29v2.2h2.2v3.6h2.7v107.7H852v2.8h-2.9h-25.8H820.5z M1124.9,608c24.4,0,45.4,9.9,55,30.2h-110
				C1079.5,617.9,1100.5,608,1124.9,608z"/>
			<g>
				<g>
					<g>
						<g>
							<rect x="583.2" y="527.7" class="st12" width="15.1" height="107.7"/>
							<rect x="579.5" y="635.4" class="st12" width="22.5" height="2.8"/>
							<rect x="576.6" y="638.2" class="st12" width="28.2" height="3.2"/>
							<rect x="580.5" y="524.2" class="st12" width="20.4" height="3.6"/>
							<rect x="578.3" y="519.8" class="st12" width="24.9" height="4.4"/>
						</g>
						<g>
							<rect x="637.1" y="527.7" class="st12" width="15.1" height="107.7"/>
							<rect x="633.5" y="635.4" class="st12" width="22.5" height="2.8"/>
							<rect x="630.6" y="638.2" class="st12" width="28.2" height="3.2"/>
							<rect x="634.5" y="524.2" class="st12" width="20.4" height="3.6"/>
							<rect x="632.2" y="519.8" class="st12" width="24.9" height="4.4"/>
						</g>
						<g>
							<rect x="691.1" y="527.7" class="st12" width="15.1" height="107.7"/>
							<rect x="687.4" y="635.4" class="st12" width="22.5" height="2.8"/>
							<rect x="684.6" y="638.2" class="st12" width="28.2" height="3.2"/>
							<rect x="688.5" y="524.2" class="st12" width="20.4" height="3.6"/>
							<rect x="686.2" y="519.8" class="st12" width="24.9" height="4.4"/>
						</g>
						<g>
							<rect x="745.1" y="527.7" class="st12" width="15.1" height="107.7"/>
							<rect x="741.4" y="635.4" class="st12" width="22.5" height="2.8"/>
							<rect x="738.5" y="638.2" class="st12" width="28.2" height="3.2"/>
							<rect x="742.4" y="524.2" class="st12" width="20.4" height="3.6"/>
							<rect x="740.2" y="519.8" class="st12" width="24.9" height="4.4"/>
						</g>
						<g>
							<rect x="799.1" y="527.7" class="st12" width="15.1" height="107.7"/>
							<rect x="795.4" y="635.4" class="st12" width="22.5" height="2.8"/>
							<rect x="792.5" y="638.2" class="st12" width="28.2" height="3.2"/>
							<rect x="796.4" y="524.2" class="st12" width="20.4" height="3.6"/>
							<rect x="794.2" y="519.8" class="st12" width="24.9" height="4.4"/>
						</g>
						<g>
							<rect x="853" y="527.7" class="st12" width="15.1" height="107.7"/>
							<rect x="849.4" y="635.4" class="st12" width="22.5" height="2.8"/>
							<rect x="846.5" y="638.2" class="st12" width="28.2" height="3.2"/>
							<rect x="850.4" y="524.2" class="st12" width="20.4" height="3.6"/>
							<rect x="848.1" y="519.8" class="st12" width="24.9" height="4.4"/>
						</g>
					</g>
					<rect x="581.3" y="517.1" class="st12" width="288.7" height="4.9"/>
					<rect x="579.8" y="514.9" class="st12" width="291.8" height="3.2"/>
					<rect x="581.3" y="511.6" class="st12" width="288.7" height="4.9"/>
					<rect x="579.8" y="509.4" class="st12" width="291.8" height="3.2"/>
					<rect x="582.3" y="504.2" class="st12" width="286.7" height="6.9"/>
					<rect x="580.9" y="501.5" class="st12" width="289.5" height="2.6"/>
					<rect x="574.4" y="495.5" class="st12" width="302.5" height="7.4"/>
					<rect x="572.3" y="493.1" class="st12" width="306.7" height="3.4"/>
					<rect x="569.5" y="489.7" class="st12" width="312.3" height="3.4"/>
					<rect x="582.3" y="485.7" class="st12" width="286.8" height="4"/>
					<rect x="589.3" y="479.5" class="st12" width="272.7" height="9.2"/>
					<rect x="587.1" y="474.8" class="st12" width="277.1" height="5.8"/>
					<rect x="583.9" y="472.5" class="st12" width="283.5" height="2.3"/>
					<rect x="579.5" y="468.4" class="st12" width="292.2" height="4.1"/>
					<rect x="685.9" y="467.1" class="st12" width="79.6" height="2.1"/>
					<rect x="682.7" y="464.1" class="st12" width="86" height="3"/>
					<rect x="685.2" y="461.1" class="st12" width="80.8" height="4"/>
					<g>
						<path class="st12" d="M746.1,463.1h6.4c0-0.6-0.3-1.7-0.2-2.5c0.2-1.3,0.1-2.1,0.1-3.4c0-0.6,1.6-4.9,2.7-3.8
							c-0.2,0.5-1.3,1.6-0.2,1.5c1.1-0.1,1.7-0.2,2.4-0.9c0.5,0.8,1.2,0.7,1.5,1.8c0.3,1.2-0.4,2.4-0.2,3.5c0.2,0.8-1.4,1.4-0.8,2.7
							c0.7,1.5,1.7,0.1,2-0.7c0.5-1,0.2-2.8,0.2-3.9c0-0.9,0.4-2.1,0.3-3.1c0-0.4-0.2-1-0.3-1.3c-0.1,0-0.9-0.3-0.9-0.4
							c-0.7,0.2-0.3-1.7-0.3-1.8c0-1.6,1.5-3.6-0.1-4.8c-0.4-0.3-0.4-1.3-0.7-1.7c-1.3-0.5,1.2-1.8,1.3-1.9c0.4-0.3,2.4-1.2,1.6-2.2
							c-0.7-0.9-0.1-1.8-0.2-2.8c0-0.5,0.5-0.9,0.5-1.4c0-0.4-0.2-0.7-0.4-1c-0.3-1.1,0.5-1.2,0.8-2.1c-1.6,0.3-2.4-1.3-3.9-1
							c-1.2,0.3-2.5,1.8-3,2.8c-0.8,1.4-1.2,3.1-1.7,4.6c-0.2,0.8-0.8,2.3-1.4,3.8c-0.6,1.5-4.8,1.4-6,3.1
							c-2.7,3.8,0.3,11.2,0.3,11.2C746.1,459,745.4,461.7,746.1,463.1z M758.1,439.8c0.9,0.6,0,0.5,0.1,0.8c0-0.1,0.2,1,0.2,1
							c0.1,0.6,0.8,0.5,0.1,0.9c-0.2,0.2-0.4,0.2-0.5,0.1C757.7,441.9,757.7,440.4,758.1,439.8z"/>
						<path class="st12" d="M758.3,441.6C758.3,441.6,758.3,441.6,758.3,441.6C758.3,441.6,758.3,441.6,758.3,441.6z"/>
						<path class="st12" d="M690.4,435.1c-0.3,0.3-0.4,0.6-0.4,1c0,0.5,0.5,0.9,0.5,1.4c0,1,0.5,1.9-0.2,2.8c-0.8,1,1.3,1.9,1.6,2.2
							c0.1,0.1,2.5,1.4,1.3,1.9c-0.3,0.4-0.3,1.5-0.7,1.7c-1.6,1.1-0.1,3.1-0.1,4.8c0,0.1,0.4,2-0.3,1.8c-0.1,0.2-0.8,0.4-0.9,0.4
							c-0.1,0.3-0.2,0.9-0.3,1.3c-0.1,0.9,0.3,2.1,0.3,3.1c0,1.1-0.3,2.9,0.2,3.9c0.3,0.7,1.4,2.2,2,0.7c0.6-1.3-1-1.8-0.8-2.7
							c0.2-1.2-0.5-2.3-0.2-3.5c0.3-1.1,1-1,1.5-1.8c0.8,0.7,1.3,0.9,2.4,0.9c1.2,0.1,0-1-0.2-1.5c1.1-1.1,2.7,3.2,2.7,3.8
							c0,1.3-0.1,2.1,0.1,3.4c0.1,0.7-0.3,1.8-0.2,2.5h6.4c0.7-1.3,0-4,0.1-5.4c0,0,3-7.4,0.3-11.3c-1.2-1.7-5.4-1.5-6-3.1
							c-0.6-1.5-1.1-3-1.4-3.8c-0.5-1.5-0.9-3.3-1.7-4.6c-0.6-1-1.9-2.5-3-2.8c-1.6-0.4-2.3,1.2-3.9,1
							C689.9,433.9,690.8,434,690.4,435.1z M693,441.6c0,0,0.2-1.1,0.2-1c0-0.4-0.9-0.2,0.1-0.8c0.4,0.6,0.3,2.1,0.2,2.8
							c-0.2,0.2-0.3,0.1-0.5-0.1C692.2,442.1,692.9,442.2,693,441.6z"/>
						<path class="st12" d="M710.5,441.7c-0.1,0.4-0.2,0.8-0.2,1.3c0,0-4.1,4.2-0.6,13.3l0.5,4.4c0.3,0.8,0.7,1.6,1.1,2.3h30.3
							l0.6-2l0.1-4.2c2.4-6.7-1.7-13.9-1.7-13.9c-0.1-0.8-0.4-1.6-0.4-2.3c0.7-0.4,1.6-1.1,1.1-1.8c-0.1-0.2-0.2-0.3-0.3-0.5
							c0.3-0.8,0.2-1.4,0.1-1.7c0-0.2,0-0.3,0-0.5c0-0.5,0.5-0.9,0.5-1.4c0-0.4-0.2-0.7-0.4-1c-0.4-1.1,0.5-1.2,0.8-2.1
							c-1.6,0.3-2.4-1.3-3.9-1c-1.2,0.3-2.5,1.8-3,2.8c-0.3,0.5-0.5,1-0.7,1.6c-0.1-0.5-0.2-0.9-0.4-1.4c-0.4-0.9-1.1-1.4-2.1-1.3
							c-1,0.1-1.2,0.9-1.1,1.8c0,0.4,0.1,0.9-0.5,1c-0.8,0-1.4-0.5-1.9-1.1c-0.5-0.5-0.3-1-0.1-1.5c0.3-0.5,0.7-1,0.9-1.6
							c0.3-0.7,0.1-1.4-0.6-1.7c-0.7-0.2-1-1.5-2.1-0.8c-0.7,0.5-1.2,0.6-1.5,0.3v-8.7c2.2-0.3,3.8-2.2,3.8-4.4
							c0-2.3-1.6-4.1-3.8-4.5l-0.2,0v-0.2c5.7-0.6,5-7,5-7s-3.4,0.9-4.5,3.1c-0.1-0.9-0.6-1.7-1.1-1.7h0l0,0c-0.5,0-1,0.7-1.1,1.7
							c-1.1-2.3-4.5-3.1-4.5-3.1s-0.7,6.4,5,7v0.2c-2.1,0.4-3.7,2.2-3.7,4.5c0,2.2,1.6,4.1,3.8,4.4v8.5c0,0,0,0,0,0
							c-1.7,1.3-2.7,3.3-4.5,4.4c-0.5,0.3-0.7,0.9-0.8,1.6c-0.4,2.7,0.1,5.4,0.4,8c0,0.4,0.1,3.2,0.1,3.2l-2.8-1.7
							c-0.1-0.2-0.2-0.3-0.2-0.5c0,0,0,0,0,0c0-1.4,0-2.6,0-3.3c0.1-1.6,0.3-3.4,0-4.9c-0.2-1.1-0.9-3-1.9-3.6
							c-1.4-0.9-2.6,0.4-4-0.4c0,0.9,0.8,1.3,0.1,2.2c-0.3,0.2-0.6,0.4-0.8,0.8c-0.1,0.5,0.2,1,0,1.5c-0.4,0.9-0.1,1.9-1.1,2.5
							c-1,0.7,0.1,2.3,0.6,2.9C709.3,441.8,710.5,441.7,710.5,441.7z M721.9,416c-0.3-0.5-0.3-0.8,0-1.3c0.8,0.1,1.2,0.1,1.8,0.1
							c0.1-0.7,0.1-1.1-0.1-1.8c0.5-0.3,0.7-0.3,1.3,0c-0.1,0.8-0.1,1.2-0.1,1.8c0.7,0.1,1.1,0.1,1.9-0.1c0.3,0.5,0.3,0.7,0,1.3
							c-0.8-0.1-1.2-0.1-1.9-0.1c-0.1,0.7-0.1,1.1,0.1,1.8c-0.5,0.3-0.8,0.3-1.3,0c0.1-0.8,0.1-1.2,0.1-1.8
							C723.1,415.9,722.7,415.9,721.9,416z M722.7,431.8c0.2-0.5,0.4-1.3,1.1-1.1c0.6,0.1,0.2,0.9,0.3,1.4c-0.1,0.4,0.3,1-0.2,1.3
							c-0.4,0.2-0.8,0-1.2-0.3C721.9,432.7,722.5,432.2,722.7,431.8z"/>
						<path class="st12" d="M693,441.6C693,441.6,693,441.6,693,441.6C693,441.6,693,441.6,693,441.6z"/>
					</g>
				</g>
				<g>
					<rect x="893.3" y="606.9" class="st12" width="100.2" height="34.5"/>
					<rect x="886.3" y="601.9" class="st12" width="114.1" height="4.9"/>
					<rect x="881.8" y="592.1" class="st12" width="123.2" height="9.9"/>
					<rect x="907.7" y="538.7" class="st12" width="71.4" height="53.4"/>
					<rect x="893.3" y="529.7" class="st12" width="100.2" height="9"/>
					<circle class="st12" cx="943.4" cy="542.8" r="28.7"/>
					<rect x="931.9" y="326" class="st12" width="23" height="203.7"/>
					<rect x="918.4" y="302.2" class="st12" width="50.1" height="23.8"/>
					<path class="st12" d="M954.3,271.2c-1.6,0.1-3.7-0.4-5.3-0.8l0,0l-0.1,0c-0.1,0-0.1,0-0.2,0v0l-0.3-0.1c0,0,0,0,0,0
						c-0.2-0.1-0.4-0.1-0.6-0.2c0.2-0.8,0.4-1.8,0.4-2.4c0,0,0-0.1,0-0.1c-0.5-0.1-1-0.4-1.4-1v0c-0.2-0.2-0.6-0.6-1-0.6
						c-0.6-0.1-1.8,1-1.8,1s0-0.7-0.3-0.7c-0.2,0-0.4,0.5-0.4,0.5s-0.3-0.6-0.9-0.6c-0.6,0-0.9,0.5-1.1,0.8
						c-0.2,0.2-0.1,0.3,0.1,0.2c0.2-0.1,0.6-0.2,0.6-0.2s0.3,0.4,0.5,0.4c0.2,0,0.4,0.2,0.5,0.5c0,0.2,0,0.5,0,0.5s-0.6,0.1-0.8,0.5
						c-0.2,0.4-0.3,0.9-0.3,1.1c0,0.2-0.5,1.1-0.4,1.5c0.1,0.5,0.1,0.9,0.3,1.1c0.2,0.2,0.5,0.4,0.3,0.6c-0.2,0.1-0.5,0.2-1-0.2
						c-0.4-0.4-0.9-0.8-1.2-1c0,0,0,0,0,0c-0.4-0.9-0.8-1.7-1.2-1.9c-0.5-0.3-1.2,0-2.3,0.4c0,0-0.3-1.6-0.7-2.5
						c-0.3-1-0.7-1.5-0.6-1.9c0.1-0.4,0.3-0.6,0.3-0.9c0-0.1,0-0.3-0.2-0.5c0.1,0,0.4-0.2,0.5-0.4c0.2-0.2,0.7-0.7,0.5-0.8
						c-0.1-0.1,0.1-0.9,0.1-0.9c-0.2-0.1-0.4-1.2-0.4-1.2c-0.2,0.2-0.6-0.6-0.6-0.6l-0.6-0.1c0,0-0.8-0.1-0.9,0.2
						c-0.1,0.2-0.3,0.1-0.5,0.3c-0.2,0.2-0.4,0.1-0.4,0.5c-0.1,0.4-0.2,0.6-0.1,0.9c0.1,0.3-0.4,0.2-0.2,0.4
						c0.1,0.3,0.1,0.6,0.3,0.8c0.2,0.1-0.1,0.3,0.1,0.5c0.2,0.2,0.5,0.6,0.7,0.6c0.1,0.3,0.2,0.8,0.3,1c0.2,0.2,0.4,0.5,0.4,1
						c0,0.5,0,2,0.4,3c0.1,0.3,0.2,0.5,0.4,0.8c-1,0.2-2.2,0.3-3.1,0.2c-2.2-0.2-3.4-0.6-3.9-0.3c-0.5,0.3,2.2,5.9,5.9,6.4
						c1.5,0.2,2.3,0.2,2.9,0.2c0.2,0.7,0.8,1.9,1.8,2.7c0.3,0.2,0.6,0.3,0.9,0.4c-0.2,0.4-0.4,0.9-0.5,1.7c-0.1,1-1.1,3.4-1.2,4
						c0,0.6,1.2,1.2,1.2,1.2s0,1.2-0.5,2.6c-0.4,1.4-1.7,3.6-2.6,4.6c-1,1-1,2.3-0.5,3c0.5,0.7,1.6,0.1,1.6,0.1s0.4,0.5,1.1,0.9
						c0.6,0.5,1.1,0.1,1.8,0c0.3-0.1,0.6,0,0.9,0.1v1.9c-0.5,0.3-0.9,0.8-1.1,1.3h-1.3v4.5h9.3v-4.5h-1.5c-0.2-0.4-0.5-0.8-0.9-1.1
						v-2.6c0.3,0,0.6,0.1,0.8,0.2c0.7,0.2,1.1-0.3,2.3-0.4c1.2-0.1,1.7,0.1,2.6-0.2c1-0.3,1.6-1.8,1.6-1.8s-0.4-1-0.7-1.9
						c-0.3-1-1.4-1.5-1.9-2.6c-0.5-1-2.2-5-2.2-5s1.2-0.9,1.1-1.4c-0.1-0.4-0.7-0.2-1.4-0.8c-0.7-0.6-1.1-3.9-1.1-3.9s1,0.6,1.5,0.7
						c0.4,0.1,0.6-0.3,0.6-0.9c-0.1-0.6-0.1-0.6,0-1c0-0.1,0-0.3,0-0.4c1.2-0.1,2.7-0.3,4.3-1.2c3.7-1.9,5.3-5.4,5.3-6.2
						C958.5,270.5,957.2,271.1,954.3,271.2z"/>
				</g>
				<g>
					<path class="st12" d="M547.9,551.9l7.6-6.4h-17.4v-19.3h-2.9v-28.8v-3.2h0v-7c0-9.5-7.5-17.4-16.9-18v-7.7
						c1.6-0.9,2.7-2.6,2.7-4.5c0-2.4-1.6-4.4-3.8-5v-0.6h-2.8v0.6c-2.2,0.6-3.8,2.6-3.8,5c0,2,1.1,3.7,2.8,4.6v7.7
						c-9.4,0.6-16.9,8.5-16.9,18v7h0v3.2v28.8h-2.9v19.3h-28.4v-46v-10.8V488v-10.8h0v-6.6c0-26.5-19.9-48.5-45.6-51.9v-17h0v-7.1
						l-7.3-19.9H412c1.7-1,2.8-2.8,2.8-4.9c0-2-1-3.7-2.5-4.7c-0.4-0.3-0.9-0.5-1.4-0.7V352h6.2v-3.4h-6.2v-7.1h-1.7h-1.7v7.1h-6.2
						v3.4h6.2v12.5c-2.3,0.7-4,2.9-4,5.4c0,2.1,1.1,3.9,2.8,4.9h-0.4l-7.3,19.9v0h0v7.8l0,0v16.3c-25.6,3.4-45.6,25.4-45.6,51.9v6.6
						v3.5v7.3v0.7v10.8v46h-28.4v-19.3h-2.9v-28.8v-3.2v-3.2v-3.8c0-9.5-7.5-17.4-16.9-18v-7.7c1.6-0.9,2.7-2.6,2.7-4.5
						c0-2.4-1.6-4.4-3.8-5v-0.6H301v0.6c-2.2,0.6-3.8,2.6-3.8,5c0,2,1.1,3.7,2.8,4.6v7.7c-9.4,0.6-16.9,8.5-16.9,18v7l0,0v3.2v28.8
						h-2.9v19.3h-17.4l11.3,9.5v9.8h6.5v76.5h128.6h128.6v-76.5h6.5v0V555L547.9,551.9z"/>
					<circle class="st11" cx="302.4" cy="536.3" r="6.1"/>
					<path class="st11" d="M307.3,505.9c0-2.7-2.2-4.9-4.9-4.9c-2.7,0-4.9,2.2-4.9,4.9v14.6h9.8V505.9L307.3,505.9z"/>
					<circle class="st11" cx="515.8" cy="536.3" r="6.1"/>
					<path class="st11" d="M520.7,505.9c0-2.7-2.2-4.9-4.9-4.9c-2.7,0-4.9,2.2-4.9,4.9v14.6h9.8V505.9L520.7,505.9z"/>
					<path class="st11" d="M415.7,523.8c0-3.6-2.9-6.5-6.5-6.5c-3.6,0-6.5,2.9-6.5,6.5v19.4h13.1V523.8L415.7,523.8z"/>
					<path class="st11" d="M394.1,622c0-3.6-2.9-6.5-6.5-6.5c-3.6,0-6.5,2.9-6.5,6.5v19.4h13.1V622L394.1,622z"/>
					<path class="st11" d="M436.5,622c0-3.6-2.9-6.5-6.5-6.5c-3.6,0-6.5,2.9-6.5,6.5v19.4h13.1V622L436.5,622z"/>
					<rect x="294.3" y="612.6" class="st11" width="16.2" height="28.8"/>
					<g>
						<rect x="507.7" y="612.6" class="st11" width="16.2" height="28.8"/>
					</g>
					<polygon class="st11" points="353.1,545.5 357.4,564.9 357.4,641.4 363.2,641.4 363.2,564.8 370.9,564.8 370.9,641.4 
						376.8,641.4 376.8,564.9 381.1,545.5 					"/>
					<polygon class="st11" points="437.2,545.5 441.5,564.9 441.5,641.4 447.4,641.4 447.4,564.8 455,564.8 455,641.4 460.9,641.4 
						460.9,564.9 465.2,545.5 					"/>
					<path class="st11" d="M419.8,605.3c0-5.9-4.8-10.6-10.6-10.6c-5.9,0-10.6,4.8-10.6,10.6v36.1h21.3V605.3L419.8,605.3z"/>
					<g>
						<rect x="338.3" y="620" class="st11" width="7.5" height="6.5"/>
						<rect x="338.3" y="627.8" class="st11" width="7.5" height="6.2"/>
						<rect x="338.3" y="612.6" class="st11" width="7.5" height="6.2"/>
						<rect x="329.6" y="612.6" class="st11" width="7.5" height="6.2"/>
						<rect x="329.6" y="627.8" class="st11" width="7.5" height="6.2"/>
						<rect x="329.6" y="635.2" class="st11" width="7.5" height="6.2"/>
						<rect x="338.3" y="635.2" class="st11" width="7.5" height="6.2"/>
						<rect x="329.6" y="620" class="st11" width="7.5" height="6.5"/>
					</g>
					<g>
						<rect x="338.3" y="575.2" class="st11" width="7.5" height="5.8"/>
						<rect x="338.3" y="582.1" class="st11" width="7.5" height="5.5"/>
						<rect x="338.3" y="568.5" class="st11" width="7.5" height="5.6"/>
						<rect x="329.6" y="568.5" class="st11" width="7.5" height="5.6"/>
						<rect x="329.6" y="582.1" class="st11" width="7.5" height="5.5"/>
						<rect x="329.6" y="588.7" class="st11" width="7.5" height="5.5"/>
						<rect x="338.3" y="588.7" class="st11" width="7.5" height="5.5"/>
						<rect x="329.6" y="575.2" class="st11" width="7.5" height="5.8"/>
					</g>
					<g>
						<rect x="303" y="575.2" class="st11" width="7.5" height="5.8"/>
						<rect x="303" y="582.1" class="st11" width="7.5" height="5.5"/>
						<rect x="303" y="568.5" class="st11" width="7.5" height="5.6"/>
						<rect x="294.3" y="568.5" class="st11" width="7.5" height="5.6"/>
						<rect x="294.3" y="582.1" class="st11" width="7.5" height="5.5"/>
						<rect x="294.3" y="588.7" class="st11" width="7.5" height="5.5"/>
						<rect x="303" y="588.7" class="st11" width="7.5" height="5.5"/>
						<rect x="294.3" y="575.2" class="st11" width="7.5" height="5.8"/>
					</g>
					<g>
						<rect x="471.9" y="620" class="st11" width="7.5" height="6.5"/>
						<rect x="471.9" y="627.8" class="st11" width="7.5" height="6.2"/>
						<rect x="471.9" y="612.6" class="st11" width="7.5" height="6.2"/>
						<rect x="480.6" y="612.6" class="st11" width="7.5" height="6.2"/>
						<rect x="480.6" y="627.8" class="st11" width="7.5" height="6.2"/>
						<rect x="480.6" y="635.2" class="st11" width="7.5" height="6.2"/>
						<rect x="471.9" y="635.2" class="st11" width="7.5" height="6.2"/>
						<rect x="480.6" y="620" class="st11" width="7.5" height="6.5"/>
					</g>
					<g>
						<rect x="471.9" y="575.2" class="st11" width="7.5" height="5.8"/>
						<rect x="471.9" y="582.1" class="st11" width="7.5" height="5.5"/>
						<rect x="471.9" y="568.5" class="st11" width="7.5" height="5.6"/>
						<rect x="480.6" y="568.5" class="st11" width="7.5" height="5.6"/>
						<rect x="480.6" y="582.1" class="st11" width="7.5" height="5.5"/>
						<rect x="480.6" y="588.7" class="st11" width="7.5" height="5.5"/>
						<rect x="471.9" y="588.7" class="st11" width="7.5" height="5.5"/>
						<rect x="480.6" y="575.2" class="st11" width="7.5" height="5.8"/>
					</g>
					<g>
						<rect x="507.2" y="575.2" class="st11" width="7.5" height="5.8"/>
						<rect x="507.2" y="582.1" class="st11" width="7.5" height="5.5"/>
						<rect x="507.2" y="568.5" class="st11" width="7.5" height="5.6"/>
						<rect x="515.9" y="568.5" class="st11" width="7.5" height="5.6"/>
						<rect x="515.9" y="582.1" class="st11" width="7.5" height="5.5"/>
						<rect x="515.9" y="588.7" class="st11" width="7.5" height="5.5"/>
						<rect x="507.2" y="588.7" class="st11" width="7.5" height="5.5"/>
						<rect x="515.9" y="575.2" class="st11" width="7.5" height="5.8"/>
					</g>
					<rect x="353.1" y="480.8" class="st11" width="112.1" height="4.7"/>
					<rect x="274.1" y="545.5" class="st12" width="270.1" height="19.3"/>
				</g>
				<g>
					<polygon class="st12" points="228.5,641.4 243.7,116.6 258.9,641.4 					"/>
					<path class="st12" d="M252.4,161.9c0,1.9-1.6,3.5-3.5,3.5h-10.5c-1.9,0-3.5-1.6-3.5-3.5l0,0c0-1.9,1.6-3.5,3.5-3.5h10.5
						C250.8,158.4,252.4,160,252.4,161.9L252.4,161.9z"/>
					<path class="st12" d="M252.4,240.1c0,1.9-1.6,3.5-3.5,3.5h-10.5c-1.9,0-3.5-1.6-3.5-3.5l0,0c0-1.9,1.6-3.5,3.5-3.5h10.5
						C250.8,236.7,252.4,238.2,252.4,240.1L252.4,240.1z"/>
					<path class="st12" d="M262.2,377.4c0,0.9-0.7,1.6-1.6,1.6h-33.8c-0.9,0-1.6-0.7-1.6-1.6l0,0c0-0.9,0.7-1.6,1.6-1.6h33.8
						C261.4,375.9,262.2,376.6,262.2,377.4L262.2,377.4z"/>
					<path class="st12" d="M262.2,389.3c0,0.9-0.7,1.6-1.6,1.6h-33.8c-0.9,0-1.6-0.7-1.6-1.6l0,0c0-0.9,0.7-1.6,1.6-1.6h33.8
						C261.4,387.7,262.2,388.4,262.2,389.3L262.2,389.3z"/>
					<polygon class="st12" points="254.5,296.4 232.9,296.4 228.7,318.7 258.7,318.7 					"/>
					<circle class="st12" cx="243.7" cy="340.3" r="28.7"/>
				</g>
				<g>
					<g>
						<g>
							<path class="st12" d="M1122.2,608c25.6,0,47.5,10.9,56.4,33.4v-62.5h-112.8v62.5C1074.7,618.9,1096.6,608,1122.2,608z"/>
							<g>
								<rect x="1065.8" y="575.2" class="st12" width="4.8" height="4.9"/>
								<rect x="1073.5" y="575.2" class="st12" width="4.9" height="4.9"/>
								<rect x="1081.3" y="575.2" class="st12" width="4.9" height="4.9"/>
								<rect x="1089" y="575.2" class="st12" width="4.9" height="4.9"/>
								<rect x="1096.7" y="575.2" class="st12" width="4.9" height="4.9"/>
								<rect x="1104.4" y="575.2" class="st12" width="4.8" height="4.9"/>
								<rect x="1112.1" y="575.2" class="st12" width="4.8" height="4.9"/>
								<rect x="1119.8" y="575.2" class="st12" width="4.9" height="4.9"/>
								<rect x="1127.5" y="575.2" class="st12" width="4.8" height="4.9"/>
								<rect x="1135.2" y="575.2" class="st12" width="4.9" height="4.9"/>
								<rect x="1143" y="575.2" class="st12" width="4.9" height="4.9"/>
								<rect x="1150.7" y="575.2" class="st12" width="4.8" height="4.9"/>
								<rect x="1158.4" y="575.2" class="st12" width="4.8" height="4.9"/>
								<rect x="1166.1" y="575.2" class="st12" width="4.9" height="4.9"/>
								<rect x="1173.8" y="575.2" class="st12" width="4.9" height="4.9"/>
							</g>
						</g>
						<g>
							<path class="st11" d="M1076,585.4c-2.5,0-4.5,2-4.5,4.5v3.7v3.7v5.8h9.1v-5.8v-3.7V590C1080.5,587.5,1078.5,585.4,1076,585.4
								z"/>
							<path class="st11" d="M1091.4,585.4c-2.5,0-4.5,2-4.5,4.5v3.7v3.7v5.8h9.1v-5.8v-3.7V590
								C1095.9,587.5,1093.9,585.4,1091.4,585.4z"/>
							<path class="st11" d="M1106.8,585.4c-2.5,0-4.5,2-4.5,4.5v3.7v3.7v5.8h9.1v-5.8v-3.7V590
								C1111.4,587.5,1109.3,585.4,1106.8,585.4z"/>
							<path class="st11" d="M1122.2,585.4c-2.5,0-4.5,2-4.5,4.5v3.7v3.7v5.8h9.1v-5.8v-3.7V590
								C1126.8,587.5,1124.8,585.4,1122.2,585.4z"/>
							<path class="st11" d="M1137.7,585.4c-2.5,0-4.5,2-4.5,4.5v3.7v3.7v5.8h9.1v-5.8v-3.7V590
								C1142.2,587.5,1140.2,585.4,1137.7,585.4z"/>
							<path class="st11" d="M1153.1,585.4c-2.5,0-4.5,2-4.5,4.5v3.7v3.7v5.8h9.1v-5.8v-3.7V590
								C1157.6,587.5,1155.6,585.4,1153.1,585.4z"/>
							<path class="st11" d="M1168.5,585.4c-2.5,0-4.5,2-4.5,4.5v3.7v3.7v5.8h9.1v-5.8v-3.7V590
								C1173.1,587.5,1171,585.4,1168.5,585.4z"/>
						</g>
					</g>
					<g>
						<rect x="1020.3" y="588.5" class="st12" width="45.6" height="52.9"/>
						<rect x="1028.1" y="491.2" class="st12" width="29.9" height="107.4"/>
						<rect x="1025.4" y="482.5" class="st12" width="35.3" height="12"/>
						<ellipse class="st12" cx="1043.1" cy="535.2" rx="25.8" ry="19.5"/>
						<polygon class="st12" points="1029.8,484.6 1043.1,439.9 1056.4,484.6 						"/>
					</g>
					<g>
						<rect x="1178.5" y="588.5" class="st12" width="45.6" height="52.9"/>
						<rect x="1186.4" y="491.2" class="st12" width="29.9" height="107.4"/>
						<rect x="1183.7" y="482.5" class="st12" width="35.3" height="12"/>
						<ellipse class="st12" cx="1201.3" cy="535.2" rx="25.8" ry="19.5"/>
						<polygon class="st12" points="1188,484.6 1201.3,439.9 1214.6,484.6 						"/>
					</g>
				</g>
				<g>
					<g>
						<g>
							<path class="st12" d="M102.5,608c25.6,0,47.5,10.9,56.4,33.4v-62.5H46v62.5C54.9,618.9,76.8,608,102.5,608z"/>
							<g>
								<rect x="46" y="575.2" class="st12" width="4.8" height="4.9"/>
								<rect x="53.7" y="575.2" class="st12" width="4.9" height="4.9"/>
								<rect x="61.5" y="575.2" class="st12" width="4.9" height="4.9"/>
								<rect x="69.2" y="575.2" class="st12" width="4.9" height="4.9"/>
								<rect x="76.9" y="575.2" class="st12" width="4.9" height="4.9"/>
								<rect x="84.6" y="575.2" class="st12" width="4.8" height="4.9"/>
								<rect x="92.3" y="575.2" class="st12" width="4.8" height="4.9"/>
								<rect x="100" y="575.2" class="st12" width="4.9" height="4.9"/>
								<rect x="107.7" y="575.2" class="st12" width="4.8" height="4.9"/>
								<rect x="115.5" y="575.2" class="st12" width="4.9" height="4.9"/>
								<rect x="123.2" y="575.2" class="st12" width="4.9" height="4.9"/>
								<rect x="130.9" y="575.2" class="st12" width="4.8" height="4.9"/>
								<rect x="138.6" y="575.2" class="st12" width="4.8" height="4.9"/>
								<rect x="146.3" y="575.2" class="st12" width="4.9" height="4.9"/>
								<rect x="154" y="575.2" class="st12" width="4.9" height="4.9"/>
							</g>
						</g>
						<g>
							<path class="st11" d="M56.2,585.4c-2.5,0-4.5,2-4.5,4.5v3.7v3.7v5.8h9.1v-5.8v-3.7V590C60.7,587.5,58.7,585.4,56.2,585.4z"/>
							<path class="st11" d="M71.6,585.4c-2.5,0-4.5,2-4.5,4.5v3.7v3.7v5.8h9.1v-5.8v-3.7V590C76.1,587.5,74.1,585.4,71.6,585.4z"/>
							<path class="st11" d="M87,585.4c-2.5,0-4.5,2-4.5,4.5v3.7v3.7v5.8h9.1v-5.8v-3.7V590C91.6,587.5,89.5,585.4,87,585.4z"/>
							<path class="st11" d="M102.5,585.4c-2.5,0-4.5,2-4.5,4.5v3.7v3.7v5.8h9.1v-5.8v-3.7V590C107,587.5,105,585.4,102.5,585.4z"/>
							<path class="st11" d="M117.9,585.4c-2.5,0-4.5,2-4.5,4.5v3.7v3.7v5.8h9.1v-5.8v-3.7V590C122.4,587.5,120.4,585.4,117.9,585.4
								z"/>
							<path class="st11" d="M133.3,585.4c-2.5,0-4.5,2-4.5,4.5v3.7v3.7v5.8h9.1v-5.8v-3.7V590C137.9,587.5,135.8,585.4,133.3,585.4
								z"/>
							<path class="st11" d="M148.7,585.4c-2.5,0-4.5,2-4.5,4.5v3.7v3.7v5.8h9.1v-5.8v-3.7V590C153.3,587.5,151.2,585.4,148.7,585.4
								z"/>
						</g>
					</g>
					<g>
						<rect x="0.5" y="588.5" class="st12" width="45.6" height="52.9"/>
						<rect x="8.3" y="491.2" class="st12" width="29.9" height="107.4"/>
						<rect x="5.7" y="482.5" class="st12" width="35.3" height="12"/>
						<ellipse class="st12" cx="23.3" cy="535.2" rx="25.8" ry="19.5"/>
						<polygon class="st12" points="10,484.6 23.3,439.9 36.6,484.6 						"/>
					</g>
					<g>
						<rect x="158.7" y="588.5" class="st12" width="45.6" height="52.9"/>
						<rect x="166.6" y="491.2" class="st12" width="29.9" height="107.4"/>
						<rect x="163.9" y="482.5" class="st12" width="35.3" height="12"/>
						<ellipse class="st12" cx="181.5" cy="535.2" rx="25.8" ry="19.5"/>
						<polygon class="st12" points="168.2,484.6 181.5,439.9 194.8,484.6 						"/>
					</g>
				</g>
				<rect x="-24.2" y="638.2" class="st12" width="1305.7" height="20.4"/>
			</g>
		</g>
	</g>
	<polygon class="st13" points="472.6,554.6 472.6,699.3 1280.8,699.3 1280.8,554.6 1234.1,554.6 1234.1,585.7 1210.8,585.7 
		1210.8,554.6 1072.5,554.6 1072.5,570.4 1025.9,570.4 1025.9,554.6 882.4,554.6 882.4,601 835.8,601 835.8,554.6 	"/>
	<g>
		<path class="st14" d="M702.2,592.6l102.2-5.1V325.4c-20.1-56.8-79.5-70.9-79.5-70.9v21.4h-18L702.2,592.6z"/>
		<polygon class="st14" points="908.7,584.9 908.7,441.7 917.7,437.8 919.8,373.3 977.6,301.5 996.8,373.3 996.8,468.2 1003.6,475 
			1001.1,521.6 1001.1,587.5 		"/>
		<polygon class="st14" points="1068.6,572.2 1068.6,537.4 1077.4,521.8 1077.4,409.5 1087.7,373.3 1140.4,396.1 1151,387.8 
			1174.6,401.2 1174.6,514.4 1210.8,522.6 1210.8,565.1 1210.8,581.9 		"/>
	</g>
	<path class="st13" d="M358.2,427.5c-1.1-15.1,17.9-21.6,17.9-21.6s-0.6-25.1-2.2-26.6c-1.5-1.5-2.8-4.3-0.6-6
		c2.2-1.7,7.5-2.8,7.5-2.8v-7.1c0,0,0.6-1.2,1.6-1.3c1-0.1,4.3-154.4,4.3-154.4h1.6h1.6c0,0,3.3,154.3,4.3,154.4
		c1,0.1,1.6,1.3,1.6,1.3v7.1c0,0,5.3,1.1,7.5,2.8c2.2,1.7,0.9,4.5-0.6,6c-1.5,1.5-2.2,26.6-2.2,26.6s19,6.5,17.9,21.6
		c-1.1,15.1-20.1,22-20.1,22v9.1c0,0,1.9,0,2.4,0s0.3,4.2,0.3,5.3s-2.8,1-2.8,1l8.4,248.2h-18.5h-18.5l8.4-248.2c0,0-2.8,0.2-2.8-1
		s-0.2-5.3,0.3-5.3c0.5,0,2.4,0,2.4,0v-9.1C378.3,449.5,359.3,442.6,358.2,427.5z"/>
	<path class="st15" d="M-22.1,666.2v-4.4l1.9-1.9v-48.2v-3.4V601l-1.7-1.7v-3.9h2.8v-5c0,0,1.1-3.4,2.6-4.3c1.5-0.9-1.1-4-0.9-6.3
		c0.2-2.3-0.4-3.5-0.1-4.8c0.2-1.3,1.9-0.8,2.7,1.3c0.8,2,1.6,3.3,1.5,5.1c-0.2,1.8,2.3-0.1,2.3,1.8c0.1,1.9,0.5,2.6,0.5,2.6v-6.5
		l-1.3-1.3l5.2-6.1v-18.4l-4.2-4.2h3.6v-6.8h50.3l8.1,5.3v2.3l5.5,4.7l-3.8,3l-0.1,10.5l29.3,0.1l5.6,2.8v10.6h19.9l1.5-5.1l2.1,5
		h17.1l1.7-4.4l2.1,4.6h17.5l0.5-6.4l-2.1-3.6l2.3-0.5l1.8-4.8l1.6-0.7l-0.3-2.3c0,0-1.4-1.6-1.3-1.8c0.1-0.2,1.6-1,1.6-1l0.2-2.8
		l2.1-2v-9.8l-1.3-1.3l2.3-1.5l0.1-2.8l2.4-0.6c0,0-1.6-2.5-1-3.7c0.6-1.3,1.8-3.6,1.8-3.6l2.2,4.1c0,0,0,2.2-0.6,2.7
		c-0.6,0.5,1.9,1.4,1.9,1.4l-0.4,1.8c0,0-0.2,0.2-0.2,0.5c0,0.2-1-0.2,0,0.2c1,0.4,3.8,1.2,3.8,1.2l-2.3,2.9l-0.4,6.4l0.3,2.3
		l2.2,2.2l-0.5,0.8c0,0,0.1,2.2,0.1,2.5c0.1,0.2,0.7,0.4,0.7,0.4s13.6-45.5,55-45.2c41.3-0.3,55,45.2,55,45.2s0.6-0.1,0.7-0.4
		c0.1-0.2,0.1-2.5,0.1-2.5l-0.5-0.8l2.2-2.2l0.3-2.3l-0.4-6.4l-2.3-2.9c0,0,2.8-0.8,3.8-1.2c1-0.4,0,0,0-0.2c0-0.2-0.2-0.5-0.2-0.5
		l-0.4-1.8c0,0,2.6-0.9,1.9-1.4c-0.6-0.5-0.6-2.7-0.6-2.7l2.2-4.1c0,0,1.2,2.3,1.8,3.6c0.6,1.3-1,3.7-1,3.7l2.4,0.6l0.1,2.8l2.3,1.5
		l-1.3,1.3v9.8l2.1,2l0.2,2.8c0,0,1.5,0.8,1.6,1c0.1,0.2-1.3,1.8-1.3,1.8l-0.3,2.3l1.6,0.7l1.8,4.8l2.3,0.5l-2.1,3.6l0.5,6.4H312
		l2-4.6l1.7,4.4h17.1l2.1-5l1.5,5.1h19.9v-10.6l5.6-2.8l29.3-0.1l-0.1-10.5l-3.8-3l5.5-4.7v-2.3l8.1-5.3h50.3v6.8h3.6l-4.2,4.2v18.4
		l5.2,6.1l-1.3,1.3v6.5c0,0,0.4-0.7,0.5-2.6c0.1-1.9,2.5,0,2.3-1.8c-0.2-1.8,0.6-3.1,1.5-5.1c0.8-2,2.5-2.6,2.7-1.3
		c0.2,1.3-0.3,2.5-0.1,4.8c0.2,2.3-2.4,5.3-0.9,6.3c1.5,0.9,2.6,4.3,2.6,4.3v5h2.8v3.9l-1.7,1.7v7.2v3.4v48.2l1.9,1.9v4.4h1.8V685
		H221.9H-23.9v-18.8H-22.1z"/>
	<rect x="-15.3" y="679.7" class="st16" width="1296" height="39.1"/>
	<g>
		<rect x="457.7" y="534" class="st16" width="352.9" height="26.4"/>
		<rect x="442.4" y="518.6" class="st16" width="384" height="15.3"/>
		<rect x="467.8" y="498" class="st16" width="329.8" height="20.6"/>
		<rect x="578.4" y="488.1" class="st16" width="110.6" height="13.1"/>
		<rect x="780.9" y="554.6" class="st16" width="29.7" height="152.8"/>
		<rect x="721.4" y="554.6" class="st16" width="25.9" height="152.8"/>
		<rect x="654.5" y="554.6" class="st16" width="25.9" height="152.8"/>
		<rect x="457.7" y="554.6" class="st16" width="29.7" height="152.8"/>
		<rect x="521" y="554.6" class="st16" width="25.9" height="152.8"/>
		<rect x="587.9" y="554.6" class="st16" width="25.9" height="152.8"/>
		<path class="st16" d="M658.9,492.6c0,0-0.2-10.3,2-11.1c2.2-0.8,3.4,1.5,3.4,1.5s-0.8,6.2,0,6.2c0.8,0,1.6-2.4,1.8-5.4
			c0.2-2.9-0.6-3.4-0.8-4c-0.2-0.6,0.3-3.7,0.1-5.7c-0.2-2-1.6-0.3-0.3-2.5c1.3-2.3,1.1,1.1,1.8-2.5c0.7-3.6-0.3-8.4-2.4-8
			c-2.2,0.4-3.5,2.9-4.7,6.6c-1.2,3.6-1.8,4.5-2.9,4.9c-1.2,0.4-4.7,0.6-5.2,3c-0.5,2.4,1.6,6.1,1.8,8.2c0.2,2.2,0,8.9,0,8.9h-5.7
			c0,0-0.3-8.3,1-10.6c1.3-2.3,1.6-7.9-0.2-9.6c-1.8-1.7-1.8-9.1-2.3-10.9c-0.6-1.8-3.8-1.5-4.3,0.8c-0.5,2.3-0.3,5.8-1,5.2
			c-0.7-0.6,2.3-13.1,0-14.9c-2.3-1.8-4-1.5-4.4-3.7c-0.4-2.3,0-7.3,0-7.3s3.3-0.5,3.4-4.3c0.1-3.7-3.2-3.8-3.2-3.8l0.9-1.8
			c0,0,6.4-2.9,6.2-8.3c0,0-6,1.6-8,5.5c-0.1,0.1-0.1,0.2-0.1,0.3c-1.8,4.1,0.6-4,0-3.7c-0.6,0.3-1.2,3.6-1.2,3.6l-4.9-5.3
			c0,0,0.4,7.1,3.4,8.4l0.6,1.5c0,0-2.3,1-2.3,4s3.1,4.1,3.1,4.1l-0.2,6.5c0,0-3.2-1.3-3.2,0.1c0,1.4,2.7,6.2,1.3,6.4
			c-1.5,0.2-4.4-6.8-5.7-4.8c-1.3,2-2,13.5-2,13.5s-2-5.5-3.3-4.5c-1.3,1-1.3,10.9-1.3,11.6c0,0.8-2.2,2.2-2.1,4.7
			c0.1,2.5,0,9.6,0,9.6s-0.3,4.8-1.1,5.7c-0.8,0.9-0.6,1.6-0.9,2c-0.3,0.4-3.7-0.7-3.7-0.7s2.4-10.5,1.8-12.5
			c-0.7-2.1-1.9-6.2-2.4-6.1c-0.6,0.1-2.1,1.6-3.4-0.7c-1.4-2.3-2.2-8.8-4.7-10.8c-2.5-2-4-2-4.6-1.3c-0.6,0.7-0.3,7.1,0,8.6
			c0.3,1.5,1.2,1.2,1.5,1.9c0.3,0.7-0.2,3.7-0.7,4.7c-0.5,1-0.5,4.4-0.5,5c0,0.6-1.4,3.2,0.3,5.9c1.7,2.6,2.5,2.4,2.7,2.2
			c0.2-0.3-0.7-1.5-1-2.9c-0.3-1.5-1.3-5,0.4-5.3c1.7-0.3,3.4,2,4,3.8c0.6,1.9,1,7.7,1,7.7s26.7,7.3,45.5,4.3
			C660.2,495.1,658.9,492.6,658.9,492.6z"/>
	</g>
	<g>
		<path class="st16" d="M1191,629.2h-0.1v54.1h16.8v-44.1l0,0v22.4v2.8v18.9c0,0,14.2-14.3,36.5-14.3c22.4,0,36.5,13.6,36.5,13.6
			v-18.2v-0.8v-24.4l0,0v-3h-4.1v2.1h-2.8v-2.1h-4.1v2.1h-2.8v-2.1h-4.1v2.1h-2.8v-2.1h-4.1v2.1h-2.8v-2.1h-4.1v2.1h-2.8v-2.1h-4.1
			v2.1h-2.8v-2.1h-4.1v2.1h-2.8v-2.1h-4.1v2.1h-2.8v-2.1h-4.1v2.1h-2.8v-2.1h-4.1v2.1h-2.8v-2.1h-4.1v-6.9h-0.1l-0.4-5.8l-1.5,5.8
			h-2.6v-8.3h-7.5v8.3h-2.7l-1.5-5.8L1191,629.2z M1243.1,652.4v9.9h-9.2v-9.9c0-2.5,2.1-4.6,4.6-4.6S1243.1,649.9,1243.1,652.4z
			 M1254.7,662.3h-9.2v-9.9c0-2.5,2.1-4.6,4.6-4.6c2.5,0,4.6,2.1,4.6,4.6V662.3z M1261.8,647.8c2.5,0,4.6,2.1,4.6,4.6v9.9h-9.2v-9.9
			C1257.2,649.9,1259.2,647.8,1261.8,647.8z M1273.4,647.8c2.5,0,4.6,2.1,4.6,4.6v9.9h-9.2v-9.9
			C1268.8,649.9,1270.9,647.8,1273.4,647.8z M1231.4,662.3l-9.2-0.2v-9.6c0-2.5,2.1-4.6,4.6-4.6c2.5,0,4.6,2.1,4.6,4.6V662.3z
			 M1210.6,661.7v-9.3c0-2.5,2-4.6,4.6-4.6c2.5,0,4.6,2.1,4.6,4.6v9.6L1210.6,661.7z"/>
		<path class="st16" d="M1088.1,673.4l-1.2,8.3l17.6,0.8l13.2-0.6v1.4c0,0,0.5-0.6,1.6-1.4l2.8-0.1l-0.3-1.9
			c5.7-4.2,17.2-10.9,32.4-10.9c22.4,0,36.5,13.6,36.5,13.6v-18.2v-0.8v-25.3h-6.9v-2.1h-4.1v2.1h-2.8v-2.1h-4.1v2.1h-2.8v-2.1h-4.1
			v2.1h-2.8v-2.1h-4.1v2.1h-2.8v-2.1h-4.1v2.1h-2.8v-2.1h-4.1v2.1h-2.8v-2.1h-4.1v2.1h-2.8v-2.1h-4.1v2.1h-2.8v-2.1h-4.1v2.1h-5.4
			v-15.9l4.4-4.4v-12.3l1.6-3.5l-8.4-4.7v-19.7h1.1v-8.9h-1.6v1.9h-1.3v-1.9h-2.1v2h-1.1l-7-31.4h1.3v-1.4h-1h-0.6h-0.6h-1v1.4h1.3
			l-7,31.4h-1.1v-2h-2.1v1.9h-1.3v-1.9h-1.6v8.9h1.1v19.7l-8.4,4.7l1.6,3.5V618l4.4,4.4v14.7h-88.4v6.4h30.2
			c-16.1,5.4-29.4,15.7-29.4,15.7h-0.8v4.2h88.4v9.9H1088.1z M1129.9,662l-9.2-0.3v-9.3c0-2.5,2.1-4.6,4.6-4.6
			c2.5,0,4.6,2.1,4.6,4.6V662z M1153.2,652.4v9.9h-9.2v-9.9c0-2.5,2.1-4.6,4.6-4.6C1151.2,647.8,1153.2,649.9,1153.2,652.4z
			 M1164.8,662.3h-9.2v-9.9c0-2.5,2-4.6,4.6-4.6c2.5,0,4.6,2.1,4.6,4.6V662.3z M1171.9,647.8c2.5,0,4.6,2.1,4.6,4.6v9.9h-9.2v-9.9
			C1167.3,649.9,1169.4,647.8,1171.9,647.8z M1188.1,662.3h-9.2v-9.9c0-2.5,2-4.6,4.6-4.6c2.5,0,4.6,2.1,4.6,4.6V662.3z
			 M1141.6,662.3l-9.2-0.2v-9.6c0-2.5,2-4.6,4.6-4.6c2.5,0,4.6,2.1,4.6,4.6V662.3z M1006.4,659.3c3.1-1.8,27.2-15.1,42.9-15.1
			c8,0,33.6,13.3,37,15.1H1006.4z M1089.8,643.5v15.2l-0.3-0.1c0,0-12.6-9.8-26-15.1H1089.8z"/>
		<path class="st16" d="M810.3,638.3v25.3v0.8v18.2c0,0,14.2-13.6,36.5-13.6c22.3,0,36.5,14.2,36.5,14.3v0h16.8v-0.7
			c0,0,14.2-13.6,36.5-13.6c15.2,0,26.7,6.6,32.4,10.9l-0.3,1.9l2.8,0.1c1.1,0.9,1.6,1.4,1.6,1.4v-1.4l13.2,0.6l17.6-0.8l-1.2-8.3
			h-1.7v-51l4.4-4.4v-12.3l1.6-3.5l-8.4-4.7v-19.7h1.1v-8.9h-1.6v1.9h-1.3v-1.9H995v2h-1.1l-7-31.4h1.3v-1.4h-1h-0.6h-0.6h-1v1.4
			h1.3l-7,31.4h-1.1v-2H976v1.9h-1.3v-1.9H973v8.9h1.1v19.7l-8.4,4.7l1.6,3.5V618l4.4,4.4v15.9h-5.4v-2.1h-4.1v2.1h-2.8v-2.1h-4.1
			v2.1h-2.8v-2.1h-4.1v2.1h-2.8v-2.1h-4.1v2.1h-2.8v-2.1h-4.1v2.1h-2.8v-2.1h-4.1v2.1H925v-2.1h-4.1v2.1h-2.8v-2.1H914v2.1h-2.8
			v-2.1h-4.1v2.1h-6.9v-9.1h-0.1l-0.4-5.8l-1.5,5.8h-2.7v-8.3H888v8.3h-2.6l-1.5-5.8l-0.4,5.8h-0.1v6.9h-4.1v2.1h-2.8v-2.1h-4.1v2.1
			h-2.8v-2.1h-4.1v2.1h-2.8v-2.1h-4.1v2.1h-2.8v-2.1h-4.1v2.1h-2.8v-2.1h-4.1v2.1H842v-2.1h-4.1v2.1h-2.8v-2.1H831v2.1h-2.8v-2.1
			h-4.1v2.1h-2.8v-2.1h-4.1v2.1h-2.8v-2.1h-4.1L810.3,638.3L810.3,638.3z M822.3,662.3h-9.2v-9.9c0-2.5,2.1-4.6,4.6-4.6
			c2.5,0,4.6,2.1,4.6,4.6V662.3z M829.3,647.8c2.5,0,4.6,2.1,4.6,4.6v9.9h-9.2v-9.9C824.7,649.9,826.8,647.8,829.3,647.8z
			 M845.5,652.4v9.9h-9.2v-9.9c0-2.5,2.1-4.6,4.6-4.6C843.5,647.8,845.5,649.9,845.5,652.4z M857.2,662.3H848v-9.9
			c0-2.5,2-4.6,4.6-4.6c2.5,0,4.6,2.1,4.6,4.6V662.3z M880.5,652.4v9.3l-9.2,0.2v-9.6c0-2.5,2-4.6,4.6-4.6
			C878.4,647.8,880.5,649.9,880.5,652.4z M912.1,662.3H903v-9.9c0-2.5,2.1-4.6,4.6-4.6c2.5,0,4.6,2.1,4.6,4.6V662.3z M919.2,647.8
			c2.5,0,4.6,2.1,4.6,4.6v9.9h-9.2v-9.9C914.6,649.9,916.7,647.8,919.2,647.8z M935.4,652.4v9.9h-9.2v-9.9c0-2.5,2.1-4.6,4.6-4.6
			C933.4,647.8,935.4,649.9,935.4,652.4z M947.1,662.3h-9.2v-9.9c0-2.5,2.1-4.6,4.6-4.6c2.5,0,4.6,2.1,4.6,4.6V662.3z M954.1,647.8
			c2.5,0,4.6,2.1,4.6,4.6v9.6l-9.2,0.2v-9.9C949.5,649.9,951.6,647.8,954.1,647.8z M970.3,661.7l-9.2,0.3v-9.6
			c0-2.5,2.1-4.6,4.6-4.6c2.5,0,4.6,2.1,4.6,4.6V661.7z M859.7,662.3v-9.9c0-2.5,2.1-4.6,4.6-4.6c2.5,0,4.6,2.1,4.6,4.6v9.6
			L859.7,662.3z"/>
	</g>
	<g>
		<rect x="130.2" y="616" class="st16" width="116.6" height="67.4"/>
		<rect x="-14.1" y="616" class="st16" width="116.6" height="67.4"/>
		<rect x="89.2" y="596" class="st16" width="48.9" height="87.4"/>
		<rect x="93.6" y="581.6" class="st16" width="40" height="17.4"/>
		<rect x="94.9" y="512" class="st16" width="37.5" height="71.3"/>
		<rect x="93.6" y="503.6" class="st16" width="40.9" height="10"/>
		<circle class="st17" cx="114.1" cy="533.5" r="5.2"/>
		<polyline class="st16" points="118.3,506.1 114.4,488.6 109.6,506.1 117.9,506.1 		"/>
		<rect x="114" y="472.3" class="st16" width="1" height="18.1"/>
		<path class="st16" d="M114.1,472.7c0,0-2.3,0-5.5,3.4c-3.2,3.4-6.3,4.4-6.3,4.4v9.3c0,0,5.4-2.9,8.8-7.3c3.4-4.4,3.4-2.4,3.4-2.4
			L114.1,472.7z"/>
	</g>
	<path class="st16" d="M260.6,681.5v-22.4L295,653l1.5-6.8V612h-2.3l-0.1-3.5h23.4l-0.2-0.9v-12l1.8-2v-2.2l1.2-3.2l0.2-7.1
		l3.1-107.9h-1.2v-17.7l4.7-2.6c0,0-0.1-1.2,0.2-2.4c0.2-1.2,2-1,2.1-2.1c0.1-1.1-7-5.6-7.7-6c-0.7-0.4,7.3-8.9,7.9-9.8
		c0.6-1,0-2.1-2.7-5.4c-2.7-3.3-3.7-5.8-5.4-6.6c-1.6-0.8-5.5-4.6-6.6-5.4c-1.1-0.8-0.8-1.3-0.8-2.5c0-1.2,1.9,0.5,1.9-0.2
		c0-0.7,4.2,1.2,5.3,2.4c1.1,1.2,7,0.7,8.7,1.1c1.7,0.4,1.7,3.1,1.6,4c-0.1,0.9,1.1,1.5,1.5,1.2c0.4-0.2,0.7-0.5,0.7-3
		c0-2.5,0.2-2.9,0.4-3.8c0.2-0.9-0.2-7.1-0.2-7.1s-1.8-0.6-1.9-2.3c-0.1-1.7,1.6-1.4,1.6-1.4s-0.7-2.4,0-2.6
		c0.7-0.2,0.4,2.8,0.4,2.8s2-0.5,2.3,1.5c0.2,2-2,0.6-2,3.1c0,2.5,0.1,3.6,0.8,4.5c0.7,0.9,1.3,0.7,2,1.5c0.7,0.8,0.9,2,1,2.7
		c0.1,0.6,0.4,2.4-0.2,2.8c-0.6,0.4-1.4,1.5-1.6,1.6c-0.2,0.2,1.6,0.8,2.3,0.4c0.6-0.4,1-0.3,3-0.7c2-0.4,4.3-4,4.3-4
		s0.2-4.2,2.4-3.9c2.2,0.3,0.3,3.1,0.3,3.1s-0.8,1.5-2.9,4.1c-2,2.6-6.8,5.8-6.8,5.8l-0.1,7.9h-0.5c0.4,3.7-3.3,11.3-3.3,11.3
		l1.8,3.6c2.4,0.7,2.4,3.7,2.4,3.7l5.5,2.4v17.3h-2.4l2.1,108.8l0.1,7.2l1.1,2.4v2l2.6,3.1l-0.8,12.6h3.2h23.4l-0.1,3.5h-2.3v34.2
		l1.5,6.8l34.4,6.1v22.4l3.6,2.7v9l-77.2-1.9l-77.2,1.9v-9L260.6,681.5z"/>
	<g class="st18">
		<polygon class="st19" points="577.6,-12 775.4,-18.4 1720.8,754.2 1041.2,729 887.1,735.1 		"/>
		
			<radialGradient id="SVGID_6_" cx="1237.9639" cy="669.9697" r="800.8727" gradientTransform="matrix(0.7674 0.7661 -0.212 0.3031 429.9534 -497.9515)" gradientUnits="userSpaceOnUse">
			<stop  offset="0.6319" style="stop-color:#FFFFFF;stop-opacity:0"/>
			<stop  offset="0.9579" style="stop-color:#FFFFFF"/>
		</radialGradient>
		<polygon class="st20" points="577.6,-12 775.4,-18.4 1720.8,754.2 1041.2,729 887.1,735.1 		"/>
		
			<linearGradient id="SVGID_7_" gradientUnits="userSpaceOnUse" x1="1149.1965" y1="218.9129" x2="1149.1965" y2="749.4998" gradientTransform="matrix(1 0 0 1.1949 0 -146.9764)">
			<stop  offset="0.6174" style="stop-color:#FFD459;stop-opacity:0"/>
			<stop  offset="0.9579" style="stop-color:#FFD459"/>
		</linearGradient>
		<polygon class="st21" points="577.6,-12 775.4,-18.4 1720.8,754.2 1041.2,729 887.1,735.1 		"/>
	</g>
	<g>
		
			<radialGradient id="SVGID_8_" cx="883.7916" cy="489.8418" r="448.5139" gradientTransform="matrix(1 8.496607e-03 -5.557004e-03 0.654 2.754 161.9747)" gradientUnits="userSpaceOnUse">
			<stop  offset="8.683594e-02" style="stop-color:#F8BF13"/>
			<stop  offset="0.4365" style="stop-color:#F18A21"/>
			<stop  offset="0.9704" style="stop-color:#AE836C"/>
		</radialGradient>
		<path class="st22" d="M1013.1,733.7c-6.3-8.4-29.5-68.9-31.6-73.8s-25.3-25.3-30.9-28.8c-5.6-3.5-16.9-0.7-19-5.6
			c-2.1-4.9-20.4-47.1-19.7-51.3c0.7-4.2,23.9-25.3,29.5-28.8c5.6-3.5,82.2,7.7,85,7c2.8-0.7,9.1,4.2,14.8,7
			c5.6,2.8,7,16.9,10.5,20.4c3.5,3.5,14.8-0.7,21.1-1.4c6.3-0.7,56.3-5.8,59.8-6.8c3.5-1,16.8,6.1,23.2,9.6
			c6.3,3.5,11.9,11.2,13.4,14.8c1.4,3.5,5.6,26.7,8.4,30.2c2.8,3.5,69.6,35.1,75.9,35.1s18.3,0,21.1-0.7s20.4,16.2,23.2,19
			s3.5,19.7,4.9,22.5c1.4,2.8,28.8,24.6,33,25.3s17.6,28.1,17.6,28.1h-319.8c0,0-7-13.4-9.1-15.5
			C1022.3,737.9,1015.2,736.5,1013.1,733.7z"/>
		<polygon class="st23" points="1024.9,581.5 1028.6,593.1 1034.2,598.1 1045.5,599.5 1050.4,593.9 1046.2,586.8 1049.7,584.7 
			1052.8,581.6 1050.2,579.4 1045.1,564.9 1037,576.3 1029.6,580 		"/>
		
			<radialGradient id="SVGID_9_" cx="1015.8614" cy="567.5916" r="104.0969" gradientTransform="matrix(1 8.496607e-03 -5.557004e-03 0.654 3.1908 187.7538)" gradientUnits="userSpaceOnUse">
			<stop  offset="3.666016e-02" style="stop-color:#7C5E4C"/>
			<stop  offset="9.125994e-02" style="stop-color:#9B6A41"/>
			<stop  offset="0.1526" style="stop-color:#B67437"/>
			<stop  offset="0.2231" style="stop-color:#CC7C2F"/>
			<stop  offset="0.3055" style="stop-color:#DD8229"/>
			<stop  offset="0.4073" style="stop-color:#E88724"/>
			<stop  offset="0.5502" style="stop-color:#EF8922"/>
			<stop  offset="0.9469" style="stop-color:#F18A21"/>
		</radialGradient>
		<path class="st24" d="M992,578.9c0,0,23.9,3,29.5,3c5.6,0,15.5-5.6,15.5-5.6l8.1-11.4l-2.5-4l-22.5-4.2L992,578.9z"/>
		
			<radialGradient id="SVGID_10_" cx="1006.6719" cy="432.9306" r="83.9781" gradientTransform="matrix(0.9996 -2.782438e-02 3.153844e-02 1.133 -15.8059 42.9233)" gradientUnits="userSpaceOnUse">
			<stop  offset="0.2809" style="stop-color:#FFDA00"/>
			<stop  offset="0.5013" style="stop-color:#FFCD02"/>
			<stop  offset="0.6319" style="stop-color:#FBBC0A"/>
			<stop  offset="0.8892" style="stop-color:#F2911E"/>
			<stop  offset="0.9246" style="stop-color:#F18A21"/>
		</radialGradient>
		<path class="st25" d="M1019.7,510.3c-11.6,1-37.8,2.6-41.9,7.3c-3.5,4-1.2,39.9-3.5,41.6c-1.8,1.4-2.3,2.8-1,5.1
			c2.8,4.8,12.3,13.5,18.8,14.4c5.3,0.8,5.7-2.5,5-8.2c-0.3-2.5-8.1-39.8-3.8-45.3c2.7-3.4,44.8-6.9,49.5-9.3
			C1047.6,513.9,1026.5,509.8,1019.7,510.3z"/>
		
			<radialGradient id="SVGID_11_" cx="1104.1456" cy="580.0033" r="105.7904" gradientTransform="matrix(1 8.496607e-03 -5.557004e-03 0.654 3.2629 191.2981)" gradientUnits="userSpaceOnUse">
			<stop  offset="3.498047e-02" style="stop-color:#7B5D4B"/>
			<stop  offset="1" style="stop-color:#F18A21"/>
		</radialGradient>
		<path class="st26" d="M1097.5,600.9c0,0,54.1,4.2,58.3,4.2s13.4-9.1,13.4-9.1s-4.2-8.4-7-10.5c-2.8-2.1-18.3-9.8-18.3-9.8
			l-17.6-2.1L1097.5,600.9z"/>
		<g>
			
				<radialGradient id="SVGID_12_" cx="942.211" cy="485.7805" r="130.0525" fx="927.4934" fy="485.4837" gradientTransform="matrix(0.713 0.7011 -0.7913 0.8048 654.7845 -565.7656)" gradientUnits="userSpaceOnUse">
				<stop  offset="0.2809" style="stop-color:#FFDA00"/>
				<stop  offset="0.5013" style="stop-color:#FFCD02"/>
				<stop  offset="0.6319" style="stop-color:#FBBC0A"/>
				<stop  offset="0.8892" style="stop-color:#F2911E"/>
				<stop  offset="0.9246" style="stop-color:#F18A21"/>
			</radialGradient>
			<path class="st27" d="M993.7,579c10.3,0,32-5.4,36.9-10.9c2-2.2,0-3.3-2.2-4.9s-10.9-22.8-9.8-25c1.1-2.2,35.3-10.3,35.8-13.6
				c0.5-3.3-6.4-11.5-18.4-9c-12,2.5-41.3,3-45.1,6.8c-3.6,3.6,5.8,48.1,3.8,49.4C991.6,574.1,991.6,579,993.7,579z"/>
			
				<radialGradient id="SVGID_13_" cx="1045.4221" cy="512.756" r="46.4231" fx="1040.1686" fy="512.6501" gradientTransform="matrix(0.713 0.7011 -0.7913 0.8048 705.7484 -632.8628)" gradientUnits="userSpaceOnUse">
				<stop  offset="0.3538" style="stop-color:#E55525"/>
				<stop  offset="0.5016" style="stop-color:#E96624;stop-opacity:0.6234"/>
				<stop  offset="0.7465" style="stop-color:#F18A21;stop-opacity:0"/>
			</radialGradient>
			<path class="st28" d="M993.7,579c10.3,0,32-5.4,36.9-10.9c2-2.2,0-3.3-2.2-4.9s-10.9-22.8-9.8-25c1.1-2.2,35.3-10.3,35.8-13.6
				c0.5-3.3-6.4-11.5-18.4-9c-12,2.5-41.3,3-45.1,6.8c-3.6,3.6,5.8,48.1,3.8,49.4C991.6,574.1,991.6,579,993.7,579z"/>
		</g>
		<g>
			
				<radialGradient id="SVGID_14_" cx="1065.8943" cy="657.5732" r="59.3658" gradientTransform="matrix(0.9765 -0.2157 0.4297 1.9451 -248.1815 -416.9178)" gradientUnits="userSpaceOnUse">
				<stop  offset="0.2809" style="stop-color:#FFDA00"/>
				<stop  offset="0.5013" style="stop-color:#FFCD02"/>
				<stop  offset="0.6319" style="stop-color:#FBBC0A"/>
				<stop  offset="0.8892" style="stop-color:#F2911E"/>
				<stop  offset="0.9246" style="stop-color:#F18A21"/>
			</radialGradient>
			<path class="st29" d="M1054.5,521.8c0.9,7.4,13.4,41.5,14.1,54.1c0.7,12.6-3.9,10.1-1.9,14.5c1.9,4.2,29.9,14.7,37.7,9.5
				c8.7-5.8-15.8-49-19.6-67.1S1051.5,497.3,1054.5,521.8z"/>
			
				<radialGradient id="SVGID_15_" cx="1049.7021" cy="534.218" r="44.5961" gradientTransform="matrix(0.2831 -0.9591 1.9106 0.5639 -265.2961 1215.4543)" gradientUnits="userSpaceOnUse">
				<stop  offset="0.3538" style="stop-color:#E55525"/>
				<stop  offset="0.5016" style="stop-color:#E96624;stop-opacity:0.6234"/>
				<stop  offset="0.7465" style="stop-color:#F18A21;stop-opacity:0"/>
			</radialGradient>
			<path class="st30" d="M1054.5,521.8c0.9,7.4,13.4,41.5,14.1,54.1c0.7,12.6-3.9,10.1-1.9,14.5c1.9,4.2,29.9,14.7,37.7,9.5
				c8.7-5.8-15.8-49-19.6-67.1S1051.5,497.3,1054.5,521.8z"/>
		</g>
		<g>
			
				<radialGradient id="SVGID_16_" cx="1165.5886" cy="462.6932" r="37.5965" gradientTransform="matrix(-0.3334 0.9428 -2.8165 -0.996 2857.3657 -175.3607)" gradientUnits="userSpaceOnUse">
				<stop  offset="0.574" style="stop-color:#E55525"/>
				<stop  offset="0.9678" style="stop-color:#C33B32"/>
			</radialGradient>
			<path class="st31" d="M1112.4,440.8c0,0,18.6,26.2,54.9,37.7c39.5,12.6,47.5,4,50.9,7.4c3.4,3.4-13.7,23.4-30.3,25.2
				c-24.8,2.6-36-10.3-41.7-7.4c-5.7,2.9-14.9,10.9-28.6,11.4c-30.3,1.3-35.5-10.9-54.3-24.6c-18.9-13.7,15.3-56.2,21.1-57.3
				C1090.1,432.3,1107.3,433.4,1112.4,440.8z"/>
			
				<radialGradient id="SVGID_17_" cx="1107.2659" cy="488.4238" r="33.1985" gradientTransform="matrix(-1 8.307675e-03 -1.585067e-02 -1.9079 2222.2354 1411.0834)" gradientUnits="userSpaceOnUse">
				<stop  offset="0.4372" style="stop-color:#C33B32"/>
				<stop  offset="0.6338" style="stop-color:#C33B32;stop-opacity:0"/>
			</radialGradient>
			<path class="st32" d="M1112.4,440.8c0,0,18.6,26.2,54.9,37.7c39.5,12.6,47.5,4,50.9,7.4c3.4,3.4-13.7,23.4-30.3,25.2
				c-24.8,2.6-36-10.3-41.7-7.4c-5.7,2.9-14.9,10.9-28.6,11.4c-30.3,1.3-35.5-10.9-54.3-24.6c-18.9-13.7,15.3-56.2,21.1-57.3
				C1090.1,432.3,1107.3,433.4,1112.4,440.8z"/>
		</g>
		<g>
			
				<radialGradient id="SVGID_18_" cx="1068.7819" cy="663.0763" r="84.4614" gradientTransform="matrix(0.9273 -0.3743 0.7925 1.9635 -438.2215 -264.3676)" gradientUnits="userSpaceOnUse">
				<stop  offset="0.2809" style="stop-color:#FFDA00"/>
				<stop  offset="0.5013" style="stop-color:#FFCD02"/>
				<stop  offset="0.6319" style="stop-color:#FBBC0A"/>
				<stop  offset="0.8892" style="stop-color:#F2911E"/>
				<stop  offset="0.9246" style="stop-color:#F18A21"/>
			</radialGradient>
			<path class="st33" d="M1079,523.9c0,0,2.9,14,12.3,32.1c18,34.9,8.7,45.3,13.1,43.8c14.1-4.8,27-19.7,26.9-22.6
				c-0.4-6.9-2.1,4.1-21.3-34.9c-12.2-24.9-13.6-41.1-14.9-43.9C1093.7,495.6,1071.2,473.3,1079,523.9z"/>
			
				<radialGradient id="SVGID_19_" cx="1089.4767" cy="520.157" r="58.6358" gradientTransform="matrix(-0.4388 -0.8986 1.593 -0.7779 740.925 1877.386)" gradientUnits="userSpaceOnUse">
				<stop  offset="0.3538" style="stop-color:#E55525"/>
				<stop  offset="0.5016" style="stop-color:#E96624;stop-opacity:0.6234"/>
				<stop  offset="0.7465" style="stop-color:#F18A21;stop-opacity:0"/>
			</radialGradient>
			<path class="st34" d="M1079,523.9c0,0,2.9,14,12.3,32.1c18,34.9,8.7,45.3,13.1,43.8c14.1-4.8,27-19.7,26.9-22.6
				c-0.4-6.9-2.1,4.1-21.3-34.9c-12.2-24.9-13.6-41.1-14.9-43.9C1093.7,495.6,1071.2,473.3,1079,523.9z"/>
		</g>
		
			<radialGradient id="SVGID_20_" cx="969.2664" cy="335.6007" r="84.4255" gradientTransform="matrix(0.9935 0.1136 -0.1136 0.9935 39.4826 -49.8477)" gradientUnits="userSpaceOnUse">
			<stop  offset="0.2809" style="stop-color:#FFDA00"/>
			<stop  offset="0.5013" style="stop-color:#FFCD02"/>
			<stop  offset="0.6319" style="stop-color:#FBBC0A"/>
			<stop  offset="0.8892" style="stop-color:#F2911E"/>
			<stop  offset="0.9246" style="stop-color:#F18A21"/>
		</radialGradient>
		<path class="st35" d="M920.9,405.1c-5.1,1.2-6.6,10.7-2.7,18.7c3.3,6.7,45.8,47.2,99.9,32.1c49.2-13.7,2.2-19.3,2.2-19.3
			s-26.1,12-52.4-4.8C941.9,415.1,939.3,400.8,920.9,405.1z"/>
		<g>
			
				<radialGradient id="SVGID_21_" cx="1038.8848" cy="501.063" r="78.7039" gradientTransform="matrix(0.998 -6.268870e-02 6.268870e-02 0.998 -23.9078 23.1233)" gradientUnits="userSpaceOnUse">
				<stop  offset="0.2809" style="stop-color:#FFDA00"/>
				<stop  offset="0.5013" style="stop-color:#FFCD02"/>
				<stop  offset="0.6319" style="stop-color:#FBBC0A"/>
				<stop  offset="0.8892" style="stop-color:#F2911E"/>
				<stop  offset="0.9246" style="stop-color:#F18A21"/>
			</radialGradient>
			<circle class="st36" cx="1057.1" cy="478.2" r="59.1"/>
			<radialGradient id="SVGID_22_" cx="1028.6271" cy="454.2256" r="90.5817" gradientUnits="userSpaceOnUse">
				<stop  offset="0.2579" style="stop-color:#404144"/>
				<stop  offset="0.9281" style="stop-color:#000000"/>
			</radialGradient>
			<path class="st37" d="M1109.4,505.7C1109.5,505.7,1109.5,505.7,1109.4,505.7C1109.5,505.7,1109.5,505.7,1109.4,505.7
				C1109.5,505.7,1109.5,505.7,1109.4,505.7z M1092.6,524.4c-8,4-20.8,7.4-32.7,9.1c-5.3,0.7-10.4,1.1-14.8,1
				c-1.5,0-2.9-0.1-4.2-0.2c-2.2-0.2-4-0.6-5.3-1c-0.2-0.1-0.4-0.1-0.6-0.2c1.5,0.6,2.6,1,3.6,1.3c0.2,0.1,0.5,0.2,0.7,0.2
				c0.1,0,0.2,0.1,0.3,0.1c0.6,0.2,1.2,0.4,1.8,0.5c0,0,0,0,0,0c0.7,0.2,1.5,0.4,2.6,0.7c0,0,0.1,0,0.1,0c0,0,0.1,0,0.1,0
				c0.2,0,0.3,0.1,0.5,0.1c0,0,0,0,0,0c1.5,0.3,3.5,0.5,5.9,0.6c11.5,0.2,28.1-3.3,37.1-7.8c0.7-0.4,1.4-0.7,2-1.1
				c0.6-0.4,1.1-0.8,1.7-1.2c-0.2,0.2-0.5,0.4-0.7,0.5c0,0,0.1-0.1,0.1-0.1c0.4-0.3,0.7-0.5,1-0.7c0.2-0.2,0.4-0.3,0.6-0.5
				c0.9-0.7,1.6-1.2,2.3-1.8c0.9-0.7,1.8-1.5,3.1-2.7c-1.1,0.9-2.6,1.9-4.5,2.9C1093,524.2,1092.8,524.3,1092.6,524.4z M1105,510.2
				c-1.4,0.9-3.1,1.9-5,2.9c-1.1,0.5-2.2,1.1-3.4,1.6c-4.5,2-9.8,3.8-15.5,5.4c-9.7,2.7-20.5,4.8-30.6,5.9c-2.3,0.2-4.5,0.4-6.7,0.6
				c0,0,0,0,0,0c-3,0.2-5.9,0.3-8.6,0.2c-0.4,0-0.7,0-1,0c-3.8-0.1-7-0.5-9.5-1c-2.3-0.5-4-1.2-5.2-2c-0.2-0.1-0.3-0.2-0.4-0.3
				c0.2,0.2,0.5,0.4,0.7,0.6c0.8,0.6,1.7,1.3,2.6,1.9c1.1,0.8,2.2,1.6,3.2,2.2c0,0,0,0,0,0c0,0,0.1,0.1,0.1,0.1l1,0.6
				c0.2,0.1,0.4,0.2,0.6,0.3c1.2,0.6,2.9,1.1,5,1.5c2.2,0.4,4.8,0.6,7.8,0.6c0.4,0,0.8,0,1.3,0c3.2,0,6.7-0.2,10.3-0.5
				c13.6-1.3,29-4.8,40-9.2c1.8-0.7,3.5-1.5,5-2.2c1.2-0.6,2.3-1.2,3.2-1.8c2-1.2,3.4-2.4,4.3-3.5c0.1-0.1,0.1-0.1,0.2-0.2l0.7-0.9
				c0.7-1,1.5-2.2,2.2-3.4c0.5-0.8,1-1.7,1.5-2.5c0,0,0.1-0.1,0.1-0.1c0.1-0.2,0.3-0.5,0.4-0.7c0,0,0,0,0,0c0,0.1-0.1,0.2-0.2,0.2
				C1108.3,507.6,1106.9,508.9,1105,510.2z M1111.7,493.7c-1.9,1.6-4.6,3.3-8.1,5c-0.3,0.2-0.6,0.3-0.9,0.5
				c-5.3,2.6-11.8,5-18.9,7.1c-12.8,3.8-27.5,6.7-40.9,7.9c-4.4,0.4-8.7,0.6-12.7,0.7c0,0,0,0,0,0c-1,0-2,0-2.9,0
				c-1.6,0-3.2-0.1-4.6-0.2c-4.3-0.3-7.8-0.9-10.4-1.7c-2.2-0.7-3.8-1.6-4.7-2.7c-0.2-0.3-0.4-0.6-0.6-0.9c0,0.1,0.1,0.1,0.1,0.2
				c0.1,0.2,0.3,0.5,0.4,0.7c0.3,0.4,0.5,0.8,0.8,1.2c0.1,0.1,0.1,0.2,0.2,0.3c0.2,0.3,0.5,0.7,0.7,1c0.7,1,1.5,2.1,2.2,2.9
				c0,0,0,0,0,0c0,0,0,0,0,0l0,0l0.8,0.9l0.4,0.4c0,0,0.1,0.1,0.1,0.1c0,0,0-0.1-0.1-0.1c0.1,0.1,0.2,0.2,0.2,0.3
				c1,1,2.7,1.9,5.1,2.6c2.6,0.7,6,1.2,10.2,1.5c1,0,1.9,0.1,3,0.1c1.9,0,3.8,0,5.8-0.1c2.8-0.1,5.8-0.3,8.8-0.6
				c12.5-1.2,26.2-3.8,38.1-7.4c6.1-1.8,11.8-3.9,16.5-6.1c0.7-0.3,1.4-0.7,2.1-1c2.9-1.4,5.1-2.8,6.9-4.2c1.8-1.4,3-2.7,3.6-4
				c0.1-0.3,0.2-0.6,0.3-1c0,0,0,0,0,0c0.2-0.5,0.3-1,0.5-1.4c0.3-1.1,0.6-2.3,0.9-3.5c0.3-1.2,0.6-2.4,0.8-3.4c0,0,0,0,0,0
				c0,0,0-0.1,0-0.1c0,0,0,0,0,0c0,0,0,0,0,0C1115,490.3,1113.8,491.9,1111.7,493.7z M1116,473.5c-0.1-1-0.2-2-0.3-2.9
				c0-0.2,0-0.3-0.1-0.4c0-0.1,0-0.1,0-0.2c0,0.1,0,0.2,0.1,0.3c0.1,1.5-0.7,3.3-2.6,5.1c-2,2-5,4-9.3,6.2c-0.2,0.1-0.4,0.2-0.6,0.3
				c-6.1,3-13.7,5.9-22,8.3c-13.1,3.9-28.2,6.8-41.9,8.1c-6.2,0.6-12.1,0.9-17.5,0.8c-0.9,0-1.7,0-2.6-0.1c0,0,0,0,0,0
				c-1.5-0.1-2.8-0.2-4.1-0.3c-4.7-0.4-8.4-1.2-10.9-2.3c-2.4-1-3.9-2.3-4.3-3.9c0-0.1,0-0.2-0.1-0.2c0,0,0,0.1,0,0.1
				c0,0.1,0.1,0.2,0.1,0.3c0,0.1,0.1,0.2,0.1,0.3c0.2,0.8,0.5,1.7,0.8,2.6c0.3,1.1,0.7,2.2,1,3.1c0,0,0,0,0,0c0,0.1,0,0.1,0.1,0.2
				l0.9,2.2l0.1,0.2c0,0.1,0,0.1,0.1,0.2c0,0,0,0,0,0c0.6,1.4,2.2,2.5,4.6,3.5c2.6,1,6.3,1.8,10.9,2.1c1.8,0.1,3.7,0.2,5.8,0.3
				c0.1,0,0.1,0,0.2,0c4.7,0.1,9.7-0.1,15-0.6c14.7-1.3,31-4.4,44.9-8.7c7.4-2.3,14.2-4.8,19.6-7.6c0,0,0,0,0,0
				c4.2-2.1,7.3-4.1,9.3-6c1.8-1.7,2.8-3.3,2.9-4.8c0-0.2,0-0.4,0-0.6c0,0.1,0,0.2,0,0.3c0-0.1,0-0.2,0-0.2l0-2.5
				C1116.2,475.9,1116.1,474.7,1116,473.5z M1001.9,487.4c2.5,1.2,6.2,2.2,11.2,2.7c0.7,0.1,1.4,0.1,2.2,0.2c1.6,0.1,3.2,0.2,5,0.2
				c5.5,0.1,11.5-0.2,17.8-0.8c13.5-1.3,28.2-4.2,41.1-7.9c8.5-2.5,16.2-5.3,22.3-8.4c0.4-0.2,0.7-0.4,1.1-0.6
				c4.4-2.3,7.6-4.6,9.4-6.6c1.6-1.8,2.2-3.5,1.8-5c0-0.1-0.1-0.2-0.1-0.3c0,0,0,0.1,0.1,0.1l-0.2-0.5l-0.9-2.8l-0.1-0.3
				c0,0,0,0,0-0.1c0,0,0,0,0,0c0,0,0,0,0,0c-0.6-1.6-1.5-3.6-2.2-5.2c0,0,0,0,0,0c0.1,0.1,0.1,0.3,0.1,0.4c0.5,1.4,0.1,2.9-1.2,4.5
				c-1.5,2-4.4,4.2-8.5,6.4c-0.7,0.4-1.4,0.8-2.2,1.1c-6.3,3.1-14.3,6.1-23,8.5c-11.7,3.3-24.9,5.9-37.1,7.2c-6.6,0.7-13,1-18.7,0.9
				c-2.7,0-5.1-0.2-7.3-0.4c0,0,0,0,0,0c-0.3,0-0.7-0.1-1-0.1c-4.7-0.6-8.1-1.5-10.3-2.8c-2-1.2-2.9-2.6-2.8-4.2c0,0,0,0,0,0
				c0,0,0,0,0,0c-0.1,1.3-0.1,2.8-0.1,4.3c0,1.5,0,3,0.1,4.3l0,0.6l0,0.3c0,0,0,0,0,0C998.5,484.9,999.7,486.3,1001.9,487.4z
				 M1001.3,468.9c1.7,1.3,4.8,2.4,9,3c0.2,0,0.3,0,0.5,0.1c2.6,0.4,5.6,0.6,9.1,0.7c4.5,0.1,9.3-0.1,14.4-0.6
				c13.7-1.2,28.9-4.2,42-8.1c7-2.1,13.4-4.6,18.6-7.2c1.3-0.6,2.5-1.3,3.5-1.9c3.7-2.2,6.1-4.3,7.2-6.1c0.9-1.6,1-3,0.1-4.3
				c0,0,0,0,0-0.1l-0.1-0.2l-2.5-3.3c-0.2-0.3-0.5-0.6-0.8-0.9c0,0,0,0,0,0c-0.2-0.3-0.5-0.5-0.7-0.8c-0.5-0.6-1.1-1.2-1.6-1.7
				c0,0-0.1-0.1-0.1-0.1c0,0,0.1,0.1,0.1,0.1c1,1.1,1.2,2.5,0.6,3.9c-0.8,1.7-2.6,3.5-5.7,5.4c-1.3,0.8-2.8,1.7-4.5,2.5
				c-4.3,2.2-9.6,4.2-15.4,6c-13,4.1-28.7,7.2-42.5,8.2c-4,0.3-7.8,0.4-11.4,0.4c-4.1-0.1-7.5-0.4-10.3-0.9c-0.1,0-0.2,0-0.3-0.1
				c-3.3-0.7-5.7-1.6-7-2.9c-1.1-1-1.5-2.2-1.1-3.5c0-0.1,0.1-0.3,0.2-0.4c-0.1,0.4-0.3,0.8-0.4,1.2c-0.3,0.8-0.6,1.6-0.8,2.4
				c-0.4,1.3-0.8,2.5-1.1,3.6l-0.1,0.5v0l-0.3,1.1c0-0.2,0.1-0.3,0.1-0.5c-0.1,0.4-0.2,0.8-0.2,1.2
				C999.5,466.8,1000.1,467.9,1001.3,468.9z M1011.1,454.4C1011.1,454.4,1011.1,454.4,1011.1,454.4c0.4,0.1,0.7,0.2,1.1,0.3
				c2.7,0.6,6.1,1,10.4,1.1c2.3,0,4.6,0,7.1-0.1c14.2-0.7,31.2-4,44.4-8.6c4-1.4,7.7-2.9,10.8-4.5c2-1,3.7-2,5.1-3
				c2.6-1.8,4-3.5,4.4-5c0.3-1.2-0.1-2.3-1.3-3.2c-0.2-0.1-0.3-0.2-0.5-0.4c0.1,0.1,0.2,0.1,0.3,0.2c-0.1-0.1-0.3-0.2-0.5-0.3
				c0,0-0.1,0-0.1-0.1c-0.1-0.1-0.2-0.1-0.3-0.2c-0.2-0.1-0.3-0.2-0.5-0.3c-0.1,0-0.1-0.1-0.2-0.1c-0.5-0.4-1-0.7-1.5-1.1
				c-0.2-0.1-0.4-0.2-0.5-0.4c-0.2-0.1-0.4-0.2-0.5-0.3c-0.1,0-0.1-0.1-0.2-0.1l-0.2-0.1l-2.8-1.6l-0.6-0.3c0,0,0,0,0,0
				c-0.1-0.1-0.2-0.1-0.4-0.2c0.2,0.1,0.5,0.3,0.7,0.4c1.3,0.8,1.9,1.7,1.9,2.7c0,1.3-1,2.7-3,4.2c-1.3,1-3.1,2.1-5.3,3.2
				c-2.5,1.3-5.5,2.5-8.7,3.6c-11.7,4.1-27.1,7.1-39.7,7.7c-1.9,0.1-3.7,0.1-5.4,0.1c-4.3-0.1-7.7-0.5-10.1-1.2
				c-0.7-0.2-1.3-0.4-1.9-0.7c-1.3-0.6-2.1-1.3-2.5-2.1c-0.4-0.9-0.2-1.9,0.5-3c0.2-0.3,0.4-0.5,0.6-0.8c0,0,0,0.1-0.1,0.1
				c-0.1,0.1-0.2,0.2-0.2,0.3c-0.2,0.3-0.4,0.5-0.6,0.8c-0.2,0.3-0.4,0.5-0.6,0.8c-0.2,0.3-0.5,0.7-0.7,1c-0.3,0.4-0.7,0.9-1,1.3
				c-0.4,0.5-0.7,1-1,1.5l-0.7,1.2l-0.4,0.7c-0.1,0.1-0.1,0.2-0.2,0.3c-0.1,0.1-0.1,0.2-0.2,0.3c-0.6,1.2-0.6,2.3,0.1,3.3
				C1007.1,452.8,1008.7,453.7,1011.1,454.4z"/>
		</g>
		<g>
			
				<radialGradient id="SVGID_23_" cx="1058.2712" cy="431.0411" r="108.8529" gradientTransform="matrix(0.9658 0.2591 -0.1674 0.6238 108.2839 -112.0592)" gradientUnits="userSpaceOnUse">
				<stop  offset="0.51" style="stop-color:#E55525"/>
				<stop  offset="0.5339" style="stop-color:#E55525"/>
				<stop  offset="0.5606" style="stop-color:#E96624;stop-opacity:0.6234"/>
				<stop  offset="0.605" style="stop-color:#F18A21;stop-opacity:0"/>
			</radialGradient>
			<circle class="st38" cx="1057.3" cy="479.1" r="60.1"/>
			
				<radialGradient id="SVGID_24_" cx="1049.5884" cy="429.3046" r="66.1426" gradientTransform="matrix(0.9737 -0.2279 0.1078 0.4604 -18.6372 470.8853)" gradientUnits="userSpaceOnUse">
				<stop  offset="0.3538" style="stop-color:#E55525"/>
				<stop  offset="0.5016" style="stop-color:#E96624;stop-opacity:0.6234"/>
				<stop  offset="0.7465" style="stop-color:#F18A21;stop-opacity:0"/>
			</radialGradient>
			<circle class="st39" cx="1057.3" cy="479.1" r="60.1"/>
			
				<radialGradient id="SVGID_25_" cx="1099.3341" cy="448.1737" r="27.4962" gradientTransform="matrix(0.6458 0.7635 -0.3792 0.3207 559.3715 -534.9382)" gradientUnits="userSpaceOnUse">
				<stop  offset="0.3538" style="stop-color:#E55525"/>
				<stop  offset="0.5016" style="stop-color:#E96624;stop-opacity:0.6234"/>
				<stop  offset="0.7465" style="stop-color:#F18A21;stop-opacity:0"/>
			</radialGradient>
			<circle class="st40" cx="1057.3" cy="479.1" r="60.1"/>
			
				<radialGradient id="SVGID_26_" cx="1058.2712" cy="480.222" r="65.8731" gradientTransform="matrix(0.9636 -0.2673 0.2597 0.9366 -86.2425 313.2964)" gradientUnits="userSpaceOnUse">
				<stop  offset="0.8417" style="stop-color:#F18A21;stop-opacity:0"/>
				<stop  offset="0.8607" style="stop-color:#F3921D;stop-opacity:0.2214"/>
				<stop  offset="0.8903" style="stop-color:#F7A813;stop-opacity:0.567"/>
				<stop  offset="0.9268" style="stop-color:#FFCC02;stop-opacity:0.9916"/>
				<stop  offset="0.9275" style="stop-color:#FFCD02"/>
			</radialGradient>
			<circle class="st41" cx="1057.3" cy="479.1" r="60.1"/>
		</g>
		
			<radialGradient id="SVGID_27_" cx="543.6812" cy="605.9811" r="79.1119" gradientTransform="matrix(0.7539 -0.657 1.7459 2.0031 -328.7653 -447.5737)" gradientUnits="userSpaceOnUse">
			<stop  offset="0.2809" style="stop-color:#FFDA00"/>
			<stop  offset="0.5013" style="stop-color:#FFCD02"/>
			<stop  offset="0.6319" style="stop-color:#FBBC0A"/>
			<stop  offset="0.8892" style="stop-color:#F2911E"/>
			<stop  offset="0.9246" style="stop-color:#F18A21"/>
		</radialGradient>
		<path class="st42" d="M1146.8,531.4c4.3,2,10.6-3.9,12.3-11.8c1.4-6.6-3.2-59.3-50.2-78.5c-42.8-17.5-18.6,9.9-11.6,13.5
			c7,3.6,21.3,5.1,30.7,31.7C1137.3,512.6,1131.3,524.2,1146.8,531.4z"/>
		
			<radialGradient id="SVGID_28_" cx="1055.5376" cy="453.4402" r="63.7571" gradientTransform="matrix(1 0 0 0.6997 0 136.1648)" gradientUnits="userSpaceOnUse">
			<stop  offset="0.6814" style="stop-color:#C33B32"/>
			<stop  offset="0.7457" style="stop-color:#CA402F"/>
			<stop  offset="0.8387" style="stop-color:#DD4F28"/>
			<stop  offset="0.8692" style="stop-color:#E55525"/>
		</radialGradient>
		<path class="st43" d="M1012.9,439.7c0,0,17.2,5.1,36,4.6c18.4-0.6,42.8-9.2,50.8-6.9c8,2.3,15.5,6.9,15.5,6.9s-1.1-8-9.1-14.9
			c-7.2-6.2-17.2-7.4-28-3.4C1067.3,430,1015.8,441.4,1012.9,439.7z"/>
		<g>
			
				<radialGradient id="SVGID_29_" cx="1024.5922" cy="250.6937" r="124.6233" gradientTransform="matrix(0.9923 0.1236 -0.1236 0.9923 31.607 -62.1859)" gradientUnits="userSpaceOnUse">
				<stop  offset="0.2809" style="stop-color:#FFDA00"/>
				<stop  offset="0.5013" style="stop-color:#FFCD02"/>
				<stop  offset="0.6319" style="stop-color:#FBBC0A"/>
				<stop  offset="0.8892" style="stop-color:#F2911E"/>
				<stop  offset="0.9246" style="stop-color:#F18A21"/>
			</radialGradient>
			<circle class="st44" cx="1031.4" cy="348.3" r="93.5"/>
			
				<radialGradient id="SVGID_30_" cx="1043.9613" cy="285.5584" r="102.6286" gradientTransform="matrix(0.9923 0.1236 -0.1236 0.9923 31.607 -62.1859)" gradientUnits="userSpaceOnUse">
				<stop  offset="0.8417" style="stop-color:#FFDA00;stop-opacity:0"/>
				<stop  offset="0.9028" style="stop-color:#FFD201;stop-opacity:0.7118"/>
				<stop  offset="0.9275" style="stop-color:#FFCD02"/>
			</radialGradient>
			<circle class="st45" cx="1031.4" cy="348.3" r="93.5"/>
		</g>
		
			<radialGradient id="SVGID_31_" cx="991.3792" cy="284.7978" r="25.0597" gradientTransform="matrix(0.8571 -0.5152 0.3008 0.5005 55.9938 652.9652)" gradientUnits="userSpaceOnUse">
			<stop  offset="0.6452" style="stop-color:#FFFFFF"/>
			<stop  offset="0.9433" style="stop-color:#FFFFFF;stop-opacity:0"/>
		</radialGradient>
		<path class="st46" d="M1016.3,271.3c4.8,8.3-2.3,21.3-15.7,29c-13.5,7.8-28.2,7.4-33-0.9c-4.8-8.3,2.3-21.3,15.7-29
			C996.7,262.6,1011.5,263,1016.3,271.3z"/>
		<radialGradient id="SVGID_32_" cx="983.7825" cy="302.5598" r="118.7989" gradientUnits="userSpaceOnUse">
			<stop  offset="0.2579" style="stop-color:#404144"/>
			<stop  offset="0.9281" style="stop-color:#000000"/>
		</radialGradient>
		<path class="st47" d="M976.1,289.5c-13.5,14.8-23.3,33.3-27.1,53.6c-2.7-2.3-4.6-4.5-5.7-6.6c3.9-20.2,14.2-38.1,28.4-52.1
			C972.5,286,974,287.7,976.1,289.5z M1014.8,367.3c6.7,1.3,13.7,2.4,20.7,3.3c2.6-20.7,5.4-41.4,7.9-59.7
			c-5.5-0.7-10.9-1.6-16.1-2.6C1022.1,326.2,1017.7,346.7,1014.8,367.3z M959.4,392.4c-13.2-19.2-10.7-49.6,15-44.4
			c20.3,6.3,31.4,27.8,28.7,43.2l0,0C999.7,411.1,975.2,415.3,959.4,392.4z M987.2,386.1c1.5-11.7-10.9-24.5-20.2-20.8
			c-9.3,3.7-6.4,22.9,7.2,28.6C983.3,396.7,986.6,390,987.2,386.1z"/>
		<path class="st48" d="M1153.7,614.9l-21.8,12.7l-21.1-0.7c0,0-6.3,4.9-8.4,6.3c-2.1,1.4,0.7,11.2,0.7,11.2s23.2,9.8,24.6,12.7
			c1.4,2.8,0,15.5,0,15.5s10.5,26,9.8,28.1s-10.5,18.3-9.8,21.1c0.7,2.8,24.6,33.7,24.6,33.7l205.9,0.7l-16.9-29.5l-31.6-20.4
			l-11.9-26.7c0,0-4.9,5.6-7.7,5.6c-2.8,0-21.1-8.4-21.1-8.4s-19-2.1-24.6-4.2c-5.6-2.1-11.2-9.8-11.2-9.8l-28.1-18.3l-6.3-6.3
			l-21.1-11.9l-6.3-21.8c0,0-2.8,9.1-4.9,9.8C1164.2,614.9,1154.4,614.9,1153.7,614.9z"/>
	</g>
</g>
<g id="Layer_2">
	<g>
		<path d="M54.8,135.9H62l4.8-46h-7.2l1-9.5h25.1l-1.1,9.5h-7.2l-1.9,17.8h29.7l1.9-17.8h-7.2l1.1-9.5h25l-1,9.5h-7.2l-4.8,46h7.2
			l-1,9.5h-25l1-9.5h7.1l1.9-18.8H74.5l-1.9,18.8h7.2l-0.9,9.5H53.8L54.8,135.9z"/>
		<path d="M171.7,100.5c-0.7,2.5-1.4,5.1-2,7.6c-0.6,2.5-1.1,5.1-1.4,7.6l-2.7,21.5h6.1l-0.7,6l-2.6,2.2H156l-0.2-9.1
			c-1.4,2.7-3.3,5.1-5.7,7.1c-2.4,2-5.5,3-9.2,3c-4.9,0-8.6-1.8-11.1-5.4s-3.8-8.2-3.8-13.7c0-3.9,0.7-8,2.1-12.4
			c1.4-4.3,3.6-7.9,6.6-10.9c3-3,7-4.4,12-4.4c6.7,0,11,2.8,12.9,8.4c0.3-1.3,0.6-2.5,0.9-3.8c0.3-1.2,0.7-2.5,1.2-3.8H171.7z
			 M148.3,107.9c-4.1,0-7,2-8.7,5.9c-1.7,3.9-2.5,8-2.5,12.2c0,8.1,2.6,12.2,7.7,12.2c3.1,0,5.7-1.4,7.8-4.1
			c2.1-2.8,3.5-5.6,4.2-8.6l0.8-6.1c0.1-3.5-0.7-6.3-2.6-8.4C153.2,108.9,151,107.9,148.3,107.9z"/>
		<path d="M180.3,79l2.7-2.4h14.6l-7.4,60.6h6.4l-0.7,6l-2.7,2.2h-14.3l7.4-60.6h-6.8L180.3,79z"/>
		<path d="M205.3,79l2.7-2.4h14.6l-7.4,60.6h6.4l-0.7,6l-2.7,2.2h-14.3l7.4-60.6h-6.8L205.3,79z"/>
		<path d="M227.5,126.2c0-6.9,1.9-13.1,5.9-18.5c3.9-5.4,9.9-8.1,17.9-8.1c6.7,0,11.6,2,14.6,5.9c3,3.9,4.5,8.9,4.5,14.8
			c0,7.6-2.2,13.9-6.5,18.8c-4.4,4.9-10.2,7.4-17.6,7.4c-6.1,0-10.7-1.8-13.9-5.4C229.1,137.4,227.5,132.4,227.5,126.2z
			 M238.6,125.4c0,3.9,0.6,7,1.8,9.3c1.2,2.3,3.5,3.5,6.9,3.5c4.3,0,7.4-1.8,9.3-5.2c1.9-3.5,2.8-7.6,2.8-12.3
			c0-8.5-3.1-12.7-9.2-12.7C242.5,107.9,238.6,113.7,238.6,125.4z"/>
		<path d="M277.3,145.4l1.3-12.7h12.5l-1.3,12.7H277.3z M296.2,80.4l-7,43.3h-7.7l2.2-43.3H296.2z"/>
	</g>
	<g>
		<path d="M113.2,199.9h-3.3l-14.5,35.1h-4.9l-6.7-29h-0.3l-12.5,29H66l-7.8-35.1h-3.4l0.6-6h15l-0.6,6h-4.4l4.4,23.5h0.4l10.4-23.5
			H77l0.6-6h15l-0.7,6h-3.3l5.4,23.8h0.4l8.6-23.8h-4.7l0.6-6h14.8L113.2,199.9z"/>
		<path d="M122.5,230.4c2.1,0,3.5-0.6,4.4-1.7c0.9-1.1,1.5-2.3,1.9-3.4l5.2,1.1c-0.5,2.4-1.8,4.6-3.9,6.4c-2.1,1.8-5,2.8-8.6,2.8
			c-3.4,0-6.2-1-8.4-3.1c-2.2-2-3.3-5.2-3.3-9.5c0-4.6,1.3-8.6,4-12c2.7-3.4,6.3-5,11-5c2.8,0,5.2,0.7,7,2.1
			c1.9,1.4,2.8,3.2,2.8,5.5c0,2.1-0.7,3.9-2.2,5.4c-1.5,1.5-4.1,2.6-7.9,3.4c-1.1,0.3-2.3,0.5-3.6,0.7c-1.3,0.2-2.6,0.4-4.1,0.5
			c0.1,2.2,0.5,3.9,1.4,5.1C119.1,229.8,120.5,230.4,122.5,230.4z M121.3,218.8c2.8-0.6,4.6-1.3,5.3-2.1c0.8-0.8,1.2-1.7,1.2-2.7
			c0-1.2-0.4-2-1.1-2.5c-0.7-0.5-1.7-0.7-2.7-0.7c-2.2,0-3.8,0.9-4.9,2.7c-1.1,1.8-1.7,3.8-2,6c0.8-0.1,1.6-0.2,2.3-0.3
			C120,219,120.7,218.9,121.3,218.8z"/>
		<path d="M139.5,193l1.7-1.5h9.2l-4.7,38.3h4l-0.4,3.8l-1.7,1.4h-9l4.7-38.3H139L139.5,193z"/>
		<path d="M167.7,211.2c-2.4,0-4.2,1.1-5.4,3.2c-1.2,2.1-1.8,4.8-1.8,8.1c0,2.4,0.4,4.3,1.2,5.7c0.8,1.4,2.2,2.1,4.2,2.1
			c1.7,0,3.1-0.6,4-1.7c1-1.1,1.8-2.8,2.4-5l5.2,1.1c-0.5,2.6-1.8,5.1-3.8,7.4c-2,2.3-5,3.4-8.9,3.4c-3.6,0-6.4-1.1-8.4-3.4
			c-2-2.2-3-5.4-3-9.4c0-2.7,0.5-5.3,1.5-7.9c1-2.6,2.5-4.7,4.6-6.4s4.9-2.6,8.3-2.6c1.6,0,3.2,0.2,4.9,0.6c1.7,0.4,3.3,1.1,4.7,2
			l0.3,8l-5.4,0.6l-0.4-4.9c-0.8-0.4-1.5-0.7-2.1-0.8C169.1,211.3,168.4,211.2,167.7,211.2z"/>
		<path d="M181.3,222.8c0-4.4,1.2-8.3,3.7-11.7c2.5-3.4,6.2-5.1,11.3-5.1c4.3,0,7.3,1.2,9.2,3.7c1.9,2.5,2.8,5.6,2.8,9.4
			c0,4.8-1.4,8.8-4.1,11.9c-2.8,3.1-6.5,4.6-11.1,4.6c-3.8,0-6.8-1.1-8.8-3.4C182.3,229.9,181.3,226.8,181.3,222.8z M188.3,222.3
			c0,2.4,0.4,4.4,1.1,5.9c0.8,1.5,2.2,2.2,4.4,2.2c2.7,0,4.7-1.1,5.9-3.3c1.2-2.2,1.8-4.8,1.8-7.8c0-5.4-1.9-8-5.8-8
			C190.7,211.2,188.3,214.9,188.3,222.3z"/>
		<path d="M214.1,206.6h8.2l0.1,5.5c1-1.8,2.2-3.3,3.7-4.4c1.5-1.1,3.3-1.7,5.5-1.7c2.1,0,3.8,0.5,5.2,1.6c1.4,1.1,2.2,2.7,2.5,4.8
			c1-1.9,2.2-3.4,3.8-4.6c1.5-1.2,3.4-1.8,5.7-1.8c2.6,0,4.6,0.8,6.1,2.5s2.1,4.2,1.6,7.7l-1.6,13.6h4l-0.4,3.8l-1.7,1.4h-9l2-16.3
			c0.3-2.7,0.1-4.6-0.6-5.7c-0.7-1.1-1.9-1.7-3.6-1.7c-2,0-3.5,0.7-4.5,2c-1,1.3-1.6,2.9-2,4.7l-2,17h-6.4l2-16.3
			c0.3-2.7,0.1-4.6-0.6-5.7c-0.7-1.1-1.9-1.7-3.6-1.7c-2.1,0-3.7,0.7-4.7,2.2c-1,1.5-1.6,3.2-1.8,5.3l-0.1-0.1l-2,16.4h-6.4
			l2.8-23.1h-4.4l0.4-3.7L214.1,206.6z"/>
		<path d="M274.8,230.4c2.1,0,3.5-0.6,4.4-1.7c0.9-1.1,1.5-2.3,1.9-3.4l5.2,1.1c-0.5,2.4-1.8,4.6-3.9,6.4c-2.1,1.8-5,2.8-8.6,2.8
			c-3.4,0-6.2-1-8.4-3.1c-2.2-2-3.3-5.2-3.3-9.5c0-4.6,1.3-8.6,4-12c2.7-3.4,6.3-5,11-5c2.8,0,5.2,0.7,7,2.1
			c1.9,1.4,2.8,3.2,2.8,5.5c0,2.1-0.7,3.9-2.2,5.4c-1.5,1.5-4.1,2.6-7.9,3.4c-1.1,0.3-2.3,0.5-3.6,0.7c-1.3,0.2-2.6,0.4-4.1,0.5
			c0.1,2.2,0.5,3.9,1.4,5.1C271.3,229.8,272.8,230.4,274.8,230.4z M273.5,218.8c2.8-0.6,4.6-1.3,5.3-2.1c0.8-0.8,1.2-1.7,1.2-2.7
			c0-1.2-0.4-2-1.1-2.5c-0.7-0.5-1.7-0.7-2.7-0.7c-2.2,0-3.8,0.9-4.9,2.7c-1.1,1.8-1.7,3.8-2,6c0.8-0.1,1.6-0.2,2.3-0.3
			C272.3,219,273,218.9,273.5,218.8z"/>
		<path d="M302.6,208.3l1.8-1.7h2.5l0.8-6.6l2.1-2.1h4.7l-1.1,8.8h8.9l-0.5,3.5l-1.8,1.8h-7.2l-1.7,14.1c-0.4,3,0.4,4.5,2.5,4.5
			c0.8,0,1.5-0.3,2.2-0.9c0.7-0.6,1.4-2.1,2-4.3l4.6,1.6c-0.8,3.1-1.9,5.3-3.4,6.7c-1.5,1.4-3.5,2.1-6.1,2.1c-2.9,0-5.1-0.8-6.6-2.4
			c-1.5-1.6-2.1-3.8-1.7-6.7l1.8-14.7h-4.2L302.6,208.3z"/>
		<path d="M324.6,222.8c0-4.4,1.2-8.3,3.7-11.7c2.5-3.4,6.2-5.1,11.3-5.1c4.3,0,7.3,1.2,9.2,3.7c1.9,2.5,2.8,5.6,2.8,9.4
			c0,4.8-1.4,8.8-4.1,11.9c-2.8,3.1-6.5,4.6-11.1,4.6c-3.8,0-6.8-1.1-8.8-3.4C325.6,229.9,324.6,226.8,324.6,222.8z M331.6,222.3
			c0,2.4,0.4,4.4,1.1,5.9c0.8,1.5,2.2,2.2,4.4,2.2c2.7,0,4.7-1.1,5.9-3.3c1.2-2.2,1.8-4.8,1.8-7.8c0-5.4-1.9-8-5.8-8
			C334.1,211.2,331.6,214.9,331.6,222.3z"/>
		<path d="M388.6,228.9h4l-7.3-11.9h-5.5l-1.3,11.9h3.8l-0.6,6h-15l0.6-6h4.6l3-29.1h-4.6l0.6-6h15.2l-0.6,6h-4l-1.2,11.4h5.6
			l9.4-11.4h-3.9l0.6-6h15.5l-0.6,6h-4.4l-11.7,13.6l9.5,15.5h4.2l-0.6,6h-16.1L388.6,228.9z"/>
		<path d="M419.6,230.4c2.1,0,3.5-0.6,4.4-1.7c0.9-1.1,1.5-2.3,1.9-3.4l5.2,1.1c-0.5,2.4-1.8,4.6-3.9,6.4c-2.1,1.8-5,2.8-8.6,2.8
			c-3.4,0-6.2-1-8.4-3.1c-2.2-2-3.3-5.2-3.3-9.5c0-4.6,1.3-8.6,4-12c2.7-3.4,6.3-5,11-5c2.8,0,5.2,0.7,7,2.1
			c1.9,1.4,2.8,3.2,2.8,5.5c0,2.1-0.7,3.9-2.2,5.4c-1.5,1.5-4.1,2.6-7.9,3.4c-1.1,0.3-2.3,0.5-3.6,0.7c-1.3,0.2-2.6,0.4-4.1,0.5
			c0.1,2.2,0.5,3.9,1.4,5.1C416.1,229.8,417.5,230.4,419.6,230.4z M418.3,218.8c2.8-0.6,4.6-1.3,5.3-2.1c0.8-0.8,1.2-1.7,1.2-2.7
			c0-1.2-0.4-2-1.1-2.5c-0.7-0.5-1.7-0.7-2.7-0.7c-2.2,0-3.8,0.9-4.9,2.7c-1.1,1.8-1.7,3.8-2,6c0.8-0.1,1.6-0.2,2.3-0.3
			C417,219,417.7,218.9,418.3,218.8z"/>
		<path d="M437.8,206.6h7.7l0.3,7.3c0.7-1.9,1.6-3.7,2.8-5.4c1.2-1.6,2.6-2.5,4.3-2.5c1.2,0,2.3,0.4,3.2,1.1L455,214
			c-1.1-0.6-2.2-0.9-3.3-0.9c-1.4,0-2.7,0.5-3.7,1.5c-1.1,1-1.8,2.4-2.2,4l-1.5,11.1h5.6l-0.5,3.7l-1.7,1.5h-14.5l0.5-3.7l1.7-1.5
			h2.4l2.1-18h-4.2l0.4-3.7L437.8,206.6z"/>
		<path d="M467.8,230.4c3.6,0,5.4-1.2,5.4-3.5c0-1.4-0.7-2.4-2.2-2.8c-1.5-0.5-3.2-1-5.1-1.5c-1.9-0.5-3.6-1.3-5.1-2.3
			c-1.5-1-2.3-2.8-2.3-5.3c0-3.2,1.2-5.4,3.6-6.8c2.4-1.4,5-2.1,7.9-2.1c1.7,0,3.5,0.2,5.4,0.6c1.9,0.4,3.6,1.1,5.1,2l-0.1,7
			l-5.2,0.6l-0.1-3.9c-1.7-0.7-3.4-1.1-4.9-1.1c-1.3,0-2.4,0.3-3.4,0.8c-1,0.5-1.5,1.3-1.5,2.4c0,1,0.5,1.7,1.5,2.2
			c1,0.4,2.5,0.9,4.5,1.4c1.9,0.5,3.8,1.3,5.8,2.3c2,1.1,2.9,3.1,2.9,6c0,3.1-1.1,5.4-3.4,6.9c-2.3,1.5-5.1,2.3-8.3,2.3
			c-1.9,0-4-0.2-6.3-0.7c-2.3-0.5-4.3-1.2-5.8-2.1l1.8-7.3l5.2,0.5l-0.4,3.5c0.8,0.3,1.6,0.6,2.6,0.7
			C466.3,230.3,467.1,230.4,467.8,230.4z"/>
		<path d="M485.7,193l1.8-1.5h9l-2.5,20.1c1-1.7,2.2-3,3.7-4c1.5-1,3.3-1.5,5.4-1.5c2.6,0,4.7,0.8,6.4,2.5s2.3,4.2,1.8,7.7
			l-1.6,13.6h4l-0.4,3.8l-1.7,1.4h-9l2-16.3c0.3-2.7,0.1-4.6-0.7-5.7c-0.8-1.1-2.1-1.7-3.8-1.7c-2,0-3.5,0.6-4.6,1.9
			c-1.1,1.3-1.8,2.9-2.2,4.7l-2.1,17.1h-6.4l4.7-38.3h-4.1L485.7,193z"/>
		<path d="M545.8,206.6c-0.5,1.6-0.9,3.2-1.3,4.8c-0.4,1.6-0.7,3.2-0.9,4.8l-1.7,13.6h3.9l-0.4,3.8l-1.6,1.4h-7.8l-0.1-5.8
			c-0.9,1.7-2.1,3.2-3.6,4.5s-3.5,1.9-5.8,1.9c-3.1,0-5.5-1.1-7-3.4s-2.4-5.2-2.4-8.7c0-2.5,0.4-5.1,1.3-7.8c0.9-2.7,2.3-5,4.2-6.9
			c1.9-1.9,4.5-2.8,7.6-2.8c4.2,0,6.9,1.8,8.2,5.3c0.2-0.8,0.4-1.6,0.6-2.4c0.2-0.8,0.5-1.6,0.8-2.4H545.8z M531,211.2
			c-2.6,0-4.4,1.2-5.5,3.7c-1.1,2.5-1.6,5-1.6,7.7c0,5.1,1.6,7.7,4.9,7.7c1.9,0,3.6-0.9,4.9-2.6c1.3-1.7,2.2-3.6,2.7-5.5l0.5-3.9
			c0.1-2.2-0.5-4-1.6-5.3C534.1,211.9,532.7,211.2,531,211.2z"/>
		<path d="M579.9,227.2h0.3c2.2-2.8,3.8-5.4,4.7-7.6c0.9-2.3,1.4-4.6,1.4-7c0-2.1-0.4-4.1-1.1-6h7.3c0.5,2.7,0.5,5.4-0.1,8.2
			c-0.5,2.8-1.9,5.6-3.9,8.6c-1.1,1.5-2.5,3.4-4.4,5.7c-1.9,2.3-3.7,4.2-5.5,5.9h-2.9l-4.4-18.2H571l-9.5,18.2h-3.5l-6.2-23.1h-3
			l0.5-3.7l1.7-1.5h12.5l-0.4,3.7l-1.8,1.5h-2.8l2.9,13.7h0.3l9.4-18.9h4L579.9,227.2z"/>
		<path d="M590.7,240.8l5.1-14.4h6.4l-5.1,14.4H590.7z"/>
		<path d="M655.9,207.3l-5.9,0.5l-0.4-7.9h-7.8l-3,29.1h6.8l-0.6,6h-19.9l0.6-6h6.4l3-29.1h-7.8l-2,7.9l-5.8-0.5l2.5-13.4h34.3
			L655.9,207.3z"/>
		<path d="M654.3,222.8c0-4.4,1.2-8.3,3.7-11.7c2.5-3.4,6.2-5.1,11.3-5.1c4.3,0,7.3,1.2,9.2,3.7c1.9,2.5,2.8,5.6,2.8,9.4
			c0,4.8-1.4,8.8-4.1,11.9c-2.8,3.1-6.5,4.6-11.1,4.6c-3.8,0-6.8-1.1-8.8-3.4C655.3,229.9,654.3,226.8,654.3,222.8z M661.3,222.3
			c0,2.4,0.4,4.4,1.1,5.9c0.8,1.5,2.2,2.2,4.4,2.2c2.7,0,4.7-1.1,5.9-3.3c1.2-2.2,1.8-4.8,1.8-7.8c0-5.4-1.9-8-5.8-8
			C663.8,211.2,661.3,214.9,661.3,222.3z"/>
		<path d="M687.2,206.6h8.2l0.1,5.5c1-1.8,2.2-3.3,3.7-4.4c1.5-1.1,3.3-1.7,5.5-1.7c2.1,0,3.8,0.5,5.2,1.6c1.4,1.1,2.2,2.7,2.5,4.8
			c1-1.9,2.2-3.4,3.8-4.6c1.5-1.2,3.4-1.8,5.7-1.8c2.6,0,4.6,0.8,6.1,2.5c1.5,1.6,2.1,4.2,1.6,7.7l-1.6,13.6h4l-0.4,3.8l-1.7,1.4h-9
			l2-16.3c0.3-2.7,0.1-4.6-0.6-5.7c-0.7-1.1-1.9-1.7-3.6-1.7c-2,0-3.5,0.7-4.5,2c-1,1.3-1.6,2.9-2,4.7l-2,17h-6.4l2-16.3
			c0.3-2.7,0.1-4.6-0.6-5.7c-0.7-1.1-1.9-1.7-3.6-1.7c-2.1,0-3.7,0.7-4.7,2.2c-1,1.5-1.6,3.2-1.8,5.3l-0.1-0.1l-2,16.4h-6.4
			l2.8-23.1H685l0.4-3.7L687.2,206.6z"/>
		<path d="M732.1,240.8l5.1-14.4h6.4l-5.1,14.4H732.1z"/>
		<path d="M83.8,310.8H53.4l0.6-6h4.7l3-29.1h-4.6l0.6-6h30.1v11.9l-5.8,0.5l-0.6-6.4h-13l-1.2,11.4h17.9l-0.6,6H66.6l-1.2,11.7
			h13.3l1.9-6.4l5.7,0.5L83.8,310.8z"/>
		<path d="M107.8,268.8l1.7-1.5h10.7l-4.7,38.3h4l-0.4,3.8l-1.7,1.4h-8v-6.1c-1,1.8-2.3,3.4-3.9,4.7c-1.6,1.3-3.7,2-6.1,2
			c-3.1,0-5.4-1.1-7-3.4c-1.5-2.3-2.3-5.1-2.3-8.5c0-2.6,0.5-5.3,1.4-8c0.9-2.7,2.4-5,4.4-6.9c2-1.9,4.5-2.8,7.6-2.8
			c3.8,0,6.4,1.5,7.8,4.4l1.7-13.7h-5.7L107.8,268.8z M104.5,287.1c-2.6,0-4.5,1.2-5.7,3.7c-1.2,2.4-1.7,5.1-1.7,8
			c0,2.3,0.4,4.2,1.1,5.5c0.8,1.3,2,2,3.6,2c2,0,3.7-0.9,5.2-2.7c1.5-1.8,2.4-3.7,2.8-5.6l0.5-4.1c0-2.1-0.5-3.8-1.7-5
			C107.5,287.7,106.1,287.1,104.5,287.1z"/>
		<path d="M135.6,306.2c2.1,0,3.5-0.6,4.4-1.7c0.9-1.1,1.5-2.3,1.9-3.4l5.2,1.1c-0.5,2.4-1.8,4.6-3.9,6.4c-2.1,1.8-5,2.7-8.6,2.7
			c-3.4,0-6.2-1-8.4-3.1c-2.2-2-3.3-5.2-3.3-9.5c0-4.6,1.3-8.6,4-12c2.7-3.4,6.3-5,11-5c2.8,0,5.2,0.7,7,2.1
			c1.9,1.4,2.8,3.2,2.8,5.5c0,2.1-0.7,3.9-2.2,5.4c-1.5,1.5-4.1,2.6-7.9,3.4c-1.1,0.3-2.3,0.5-3.6,0.7c-1.3,0.2-2.6,0.4-4.1,0.5
			c0.1,2.2,0.5,3.9,1.4,5.1C132.2,305.6,133.6,306.2,135.6,306.2z M134.4,294.6c2.8-0.6,4.6-1.3,5.3-2.1c0.8-0.8,1.2-1.7,1.2-2.7
			c0-1.2-0.4-2-1.1-2.5c-0.7-0.5-1.7-0.7-2.7-0.7c-2.2,0-3.8,0.9-4.9,2.7c-1.1,1.8-1.7,3.8-2,6c0.8-0.1,1.6-0.2,2.3-0.3
			C133.1,294.8,133.8,294.7,134.4,294.6z"/>
		<path d="M153.2,282.4h8.2l0.2,5.5c1-1.9,2.2-3.3,3.7-4.4c1.5-1.1,3.4-1.6,5.6-1.6c2.6,0,4.7,0.8,6.4,2.5s2.3,4.2,1.8,7.7
			l-1.6,13.6h4.1l-0.5,3.8l-1.7,1.4h-9l2-16.3c0.3-2.7,0.1-4.6-0.7-5.7c-0.8-1.1-2.1-1.7-3.8-1.7c-2.1,0-3.7,0.7-4.8,2.2
			c-1.1,1.5-1.8,3.2-2.1,5.3v-0.1l-2,16.3h-6.4l2.8-23.1H151l0.4-3.7L153.2,282.4z"/>
		<path d="M181.5,316.6l5.1-14.4h6.4l-5.1,14.4H181.5z"/>
		<path d="M206.7,304.8h3.7l15-29.1h-5.8l0.6-6h12.6l10.7,35.1h3.8l-0.6,6h-15.1l0.6-6h4l-1.4-5.6h-14.9l-2.7,5.6h4.5l-0.6,6h-15
			L206.7,304.8z M229.4,279.8l-7,14.3h11l-3.7-14.3H229.4z"/>
		<path d="M251.5,268.8l1.7-1.5h9.2l-4.7,38.3h4l-0.4,3.8l-1.7,1.4h-9l4.7-38.3H251L251.5,268.8z"/>
		<path d="M276.1,282.4l0.1,5.9c0.9-1.7,2.1-3.2,3.6-4.6c1.5-1.3,3.4-2,5.7-2c3.3,0,5.8,1.2,7.5,3.5c1.7,2.3,2.5,5.2,2.5,8.5
			c0,2.6-0.5,5.3-1.4,8c-0.9,2.7-2.4,5-4.4,6.8c-2,1.8-4.6,2.7-7.8,2.7c-3.8,0-6.4-1.4-7.8-4.3l-1.5,11.9h5.8l-0.4,3.7l-1.8,1.5
			h-14.5l0.4-3.7l1.7-1.5h2.3l3.9-31.4h-4.3l0.5-3.7l1.7-1.5H276.1z M281.2,306.2c2.5,0,4.3-1.3,5.5-3.9c1.2-2.6,1.8-5.1,1.8-7.6
			c0-2.2-0.4-4.1-1.3-5.5c-0.9-1.4-2.2-2.1-4-2.1c-2.2,0-4,1-5.3,2.9c-1.3,1.9-2.1,3.9-2.4,6l-0.1,0.4l-0.4,3.4
			c0,1.9,0.6,3.5,1.7,4.7C277.8,305.6,279.3,306.2,281.2,306.2z"/>
		<path d="M300.3,268.8l1.8-1.5h9l-2.5,20.1c1-1.7,2.2-3,3.7-4c1.5-1,3.3-1.5,5.4-1.5c2.6,0,4.7,0.8,6.4,2.5s2.3,4.2,1.8,7.7
			l-1.6,13.6h4l-0.4,3.8l-1.7,1.4h-9l2-16.3c0.3-2.7,0.1-4.6-0.7-5.7c-0.8-1.1-2.1-1.7-3.8-1.7c-2,0-3.5,0.6-4.6,1.9
			c-1.1,1.3-1.8,2.9-2.2,4.7l-2.1,17.1h-6.4l4.7-38.3h-4.1L300.3,268.8z"/>
		<path d="M360.4,282.4c-0.5,1.6-0.9,3.2-1.3,4.8c-0.4,1.6-0.7,3.2-0.9,4.8l-1.7,13.6h3.9l-0.4,3.8l-1.6,1.4h-7.8l-0.1-5.8
			c-0.9,1.7-2.1,3.2-3.6,4.5c-1.5,1.3-3.5,1.9-5.8,1.9c-3.1,0-5.5-1.1-7-3.4s-2.4-5.2-2.4-8.7c0-2.5,0.4-5.1,1.3-7.8
			c0.9-2.7,2.3-5,4.2-6.9c1.9-1.9,4.5-2.8,7.6-2.8c4.2,0,6.9,1.8,8.2,5.3c0.2-0.8,0.4-1.6,0.6-2.4c0.2-0.8,0.5-1.6,0.8-2.4H360.4z
			 M345.6,287.1c-2.6,0-4.4,1.2-5.5,3.7c-1.1,2.5-1.6,5-1.6,7.7c0,5.1,1.6,7.7,4.9,7.7c1.9,0,3.6-0.9,4.9-2.6
			c1.3-1.7,2.2-3.6,2.7-5.5l0.5-3.9c0.1-2.2-0.5-4-1.6-5.3C348.7,287.7,347.3,287.1,345.6,287.1z"/>
		<path d="M366.5,282.4h8.2l0.2,5.5c1-1.9,2.2-3.3,3.7-4.4c1.5-1.1,3.4-1.6,5.6-1.6c2.6,0,4.7,0.8,6.4,2.5s2.3,4.2,1.8,7.7
			l-1.6,13.6h4.1l-0.5,3.8l-1.7,1.4h-9l2-16.3c0.3-2.7,0.1-4.6-0.7-5.7c-0.8-1.1-2.1-1.7-3.8-1.7c-2.1,0-3.7,0.7-4.8,2.2
			c-1.1,1.5-1.8,3.2-2.1,5.3v-0.1l-2,16.3h-6.4l2.8-23.1h-4.4l0.4-3.7L366.5,282.4z"/>
		<path d="M394.8,316.6l5.1-14.4h6.4l-5.1,14.4H394.8z"/>
		<path d="M460.2,275.7h-3.5l-13.9,19.1l-1,10h6.6l-0.6,6H428l0.6-6h6.4l1-10l-10.2-19.1h-3.7l0.6-6h15.6l-0.6,6h-4.1l6.6,12.9h0.3
			l9.1-12.9h-4.4l0.6-6h14.9L460.2,275.7z"/>
		<path d="M484.7,282.4c-0.5,1.6-0.9,3.2-1.3,4.8c-0.4,1.6-0.7,3.2-0.9,4.8l-1.7,13.6h3.9l-0.4,3.8l-1.6,1.4h-7.8l-0.1-5.8
			c-0.9,1.7-2.1,3.2-3.6,4.5c-1.5,1.3-3.5,1.9-5.8,1.9c-3.1,0-5.5-1.1-7-3.4s-2.4-5.2-2.4-8.7c0-2.5,0.4-5.1,1.3-7.8
			c0.9-2.7,2.3-5,4.2-6.9c1.9-1.9,4.5-2.8,7.6-2.8c4.2,0,6.9,1.8,8.2,5.3c0.2-0.8,0.4-1.6,0.6-2.4c0.2-0.8,0.5-1.6,0.8-2.4H484.7z
			 M469.9,287.1c-2.6,0-4.4,1.2-5.5,3.7c-1.1,2.5-1.6,5-1.6,7.7c0,5.1,1.6,7.7,4.9,7.7c1.9,0,3.6-0.9,4.9-2.6
			c1.3-1.7,2.2-3.6,2.7-5.5l0.5-3.9c0.1-2.2-0.5-4-1.6-5.3C473,287.7,471.6,287.1,469.9,287.1z"/>
		<path d="M491.4,282.4h7.7l0.3,7.3c0.7-1.9,1.6-3.7,2.8-5.4c1.2-1.6,2.6-2.5,4.3-2.5c1.2,0,2.3,0.4,3.2,1.1l-1.1,6.9
			c-1.1-0.6-2.2-0.9-3.3-0.9c-1.4,0-2.7,0.5-3.7,1.5c-1.1,1-1.8,2.4-2.2,4l-1.5,11.1h5.6l-0.5,3.7l-1.7,1.5h-14.5l0.5-3.7l1.7-1.5
			h2.4l2.1-18h-4.2l0.4-3.7L491.4,282.4z"/>
		<path d="M510.6,298.7c0-4.4,1.2-8.3,3.7-11.7c2.5-3.4,6.2-5.1,11.3-5.1c4.3,0,7.3,1.2,9.2,3.7c1.9,2.5,2.8,5.6,2.8,9.4
			c0,4.8-1.4,8.8-4.1,11.9c-2.8,3.1-6.5,4.6-11.1,4.6c-3.8,0-6.8-1.1-8.8-3.4C511.7,305.7,510.6,302.6,510.6,298.7z M517.7,298.2
			c0,2.4,0.4,4.4,1.1,5.9c0.8,1.5,2.2,2.2,4.4,2.2c2.7,0,4.7-1.1,5.9-3.3c1.2-2.2,1.8-4.8,1.8-7.8c0-5.4-1.9-8-5.8-8
			C520.1,287.1,517.7,290.8,517.7,298.2z"/>
		<path d="M543.5,282.4h8.2l0.2,5.5c1-1.9,2.2-3.3,3.7-4.4c1.5-1.1,3.4-1.6,5.6-1.6c2.6,0,4.7,0.8,6.4,2.5s2.3,4.2,1.8,7.7
			l-1.6,13.6h4.1l-0.5,3.8l-1.7,1.4h-9l2-16.3c0.3-2.7,0.1-4.6-0.7-5.7c-0.8-1.1-2.1-1.7-3.8-1.7c-2.1,0-3.7,0.7-4.8,2.2
			c-1.1,1.5-1.8,3.2-2.1,5.3v-0.1l-2,16.3h-6.4l2.8-23.1h-4.4l0.4-3.7L543.5,282.4z"/>
		<path d="M575.9,310.8l0.8-8h7.9l-0.8,8H575.9z M587.8,269.7l-4.4,27.4h-4.9l1.4-27.4H587.8z"/>
	</g>
	<g>
		<path d="M50.4,681.5v-41.4h126.6v41.4H50.4z M85.2,670.1h-2.2v-7.5c0-2-0.6-3.4-1.7-4.4c-1.2-0.9-2.5-1.4-3.9-1.4
			c-1.3,0-2.4,0.3-3.4,1c-0.9,0.6-1.6,1.5-2.1,2.6c-0.4-1.2-1.1-2.1-2.1-2.7s-2.1-0.9-3.3-0.9c-2.3,0-3.9,0.9-5,2.8v-2.5h-6.9v3.6
			h2.2v9.4h-2.2v3.6h10v-3.6h-3.1v-5.8c0-1.1,0.2-2.1,0.8-2.8c0.5-0.7,1.3-1.1,2.4-1.1c1.9,0,2.8,1.3,2.8,4v9.3h6.9v-3.6h-2.2v-5.8
			c0-1.1,0.2-2.1,0.7-2.8c0.5-0.7,1.3-1.1,2.4-1.1c1.9,0,2.9,1.3,2.9,4v9.3h6.9V670.1z M96.1,656.8c-3,0-5.2,0.9-6.6,2.6
			c-1.5,1.7-2.2,3.8-2.2,6.2c0,2.7,0.8,4.7,2.4,6.2c1.6,1.5,3.7,2.2,6.2,2.2c2.6,0,4.8-0.8,6.5-2.3s2.6-3.6,2.6-6.2
			c0-2.3-0.7-4.3-2.2-6.1C101.2,657.7,99,656.8,96.1,656.8z M95.9,670.4c-1.3,0-2.2-0.5-2.9-1.5c-0.7-1-1-2.2-1-3.6
			c0-1.5,0.4-2.7,1.1-3.6c0.7-0.9,1.7-1.3,2.9-1.3c1.1,0,2.1,0.4,2.9,1.2c0.8,0.8,1.2,2,1.2,3.6c0,1.6-0.4,2.8-1.1,3.8
			C98.1,670,97.2,670.4,95.9,670.4z M123.5,667.9l-3.7-0.3l-0.8,2.6h-5.3l9.2-10.5l-0.4-2.5h-14.5l-0.6,5.8l3.5,0.4l0.7-2.6h5.1
			l-9.1,10.5l0.5,2.5h14.5L123.5,667.9z M131.8,657.2h-4.9v5.9h4.9V657.2z M131.8,667.8h-4.9v5.9h4.9V667.8z M146.8,648.5h-4.7
			l-7.1,25.2h4.7L146.8,648.5z M156.3,648.5h-4.7l-7.1,25.2h4.6L156.3,648.5z M172.9,673.3l-0.1-2.5c-0.1,0.1-0.4,0.1-0.6,0.1
			c-0.8,0-1.1-0.4-1.1-1.3v-7.1c0-1.9-0.7-3.3-2-4.2c-1.3-0.9-2.8-1.4-4.6-1.4c-1.3,0-2.5,0.1-3.5,0.3s-2.2,0.6-3.6,1.2l-0.6,3.8
			l3.7,0.4l0.5-1.9c0.4-0.2,0.8-0.4,1.2-0.4c0.4,0,0.9-0.1,1.4-0.1c1.3,0,2.1,0.4,2.3,1.2c0.2,0.8,0.3,1.6,0.3,2.5v0.5
			c-0.4-0.1-0.8-0.1-1.3-0.1c-0.5,0-0.9,0-1.3,0c-1.9,0-3.7,0.3-5.3,1c-1.6,0.6-2.4,2-2.4,4c0,1.7,0.5,3,1.6,3.7s2.2,1.1,3.4,1.1
			c1.3,0,2.4-0.3,3.3-1c0.9-0.7,1.5-1.4,2-2.3c0.3,2.2,1.5,3.3,3.7,3.3C170.9,674.1,171.9,673.8,172.9,673.3z M162.7,670.7
			c-0.7,0-1.2-0.2-1.5-0.6s-0.5-0.8-0.5-1.3c0-0.9,0.3-1.5,1-1.9c0.6-0.3,1.4-0.5,2.2-0.5c0.4,0,0.8,0,1.2,0.1
			c0.4,0,0.8,0.1,1.2,0.1c0,1.4-0.4,2.4-1.2,3C164.3,670.4,163.5,670.7,162.7,670.7z"/>
	</g>
	<g>
		<path d="M204.7,666.8c0,1.9-0.6,3.5-1.9,4.9c-1.3,1.4-3.2,2.1-5.9,2.1h-12.3v-4.1h2.5v-15.2h-2.5v-4.1h12.2c2.1,0,3.9,0.5,5.2,1.5
			c1.3,1,2,2.3,2,4c0,1.2-0.4,2.3-1.1,3.2c-0.7,0.9-1.8,1.5-3.1,1.7v0.1c1.7,0.2,2.9,0.9,3.8,2C204.2,663.9,204.7,665.2,204.7,666.8
			z M198.7,657c0-1.1-0.3-1.8-1-2.1c-0.6-0.3-1.4-0.5-2.2-0.5h-3.6v5.5h3.2c1.4,0,2.3-0.3,2.8-0.8
			C198.4,658.5,198.7,657.8,198.7,657z M199.5,666.6c0-2-1.2-3-3.6-3h-4v6h3.7C198.2,669.6,199.5,668.6,199.5,666.6z"/>
		<path d="M222.2,668.6c-0.1,1.4-0.8,2.7-2.1,3.8c-1.3,1.1-3.1,1.7-5.4,1.7c-2.4,0-4.4-0.7-6-2.1c-1.6-1.4-2.4-3.4-2.4-6.1
			c0-2.5,0.7-4.6,2.1-6.2c1.4-1.7,3.4-2.5,6-2.5c2.3,0,4.1,0.6,5.5,1.9c1.4,1.3,2.1,3,2.1,5.1c0,0.8-0.1,1.6-0.3,2.3h-10.7
			c0.3,2.6,1.5,3.9,3.8,3.9c1.2,0,2.1-0.3,2.5-0.9c0.4-0.6,0.7-1.1,0.8-1.6L222.2,668.6z M217.3,663.8c0.1-0.8-0.1-1.6-0.5-2.3
			c-0.4-0.7-1.2-1.1-2.3-1.1c-1,0-1.7,0.3-2.2,0.9c-0.5,0.6-0.9,1.4-1,2.4H217.3z"/>
		<path d="M234.2,657.2c0.5,0,1,0.1,1.5,0.2c0.6,0.1,1.1,0.4,1.7,0.7l0.7,5.7l-3.5,0.4l-0.6-2.8c-0.5-0.3-0.9-0.4-1.3-0.4
			c-0.5,0-1,0.2-1.4,0.6s-0.6,1-0.6,1.8v6.8h2.9v3.5H224v-3.5h2.2V661h-2.3v-3.5h6.6v3.1c0.3-0.9,0.7-1.7,1.3-2.4
			C232.3,657.6,233.1,657.2,234.2,657.2z"/>
		<path d="M248.2,673.7h-9v-3.5h2.2v-17.7H239v-3.5h7v21.3h2.2V673.7z"/>
		<path d="M258.9,673.7h-9v-3.5h2.2V661h-2.3v-3.5h7v12.7h2.2V673.7z M251.9,654.6v-4.8h4.6v4.8H251.9z"/>
		<path d="M280.5,673.7h-9v-3.5h2.2v-5.7c0-1.4-0.2-2.4-0.7-3c-0.5-0.6-1.2-0.9-2.1-0.9c-1.1,0-2,0.3-2.6,1
			c-0.6,0.7-0.9,1.6-0.9,2.7v5.8h2.2v3.5h-9v-3.5h2.2V661h-2.3v-3.5h7v2.5c1.1-1.9,2.8-2.8,5.2-2.8c1.5,0,2.9,0.5,4,1.4
			c1.1,0.9,1.7,2.3,1.7,4.2v7.5h2.2V673.7z"/>
	</g>
</g>
<g id="Layer_2_copy" class="st0">
	<text transform="matrix(1 0 0 1 52.8123 145.3706)" class="st1 st49 st50">Hallo!</text>
	<text transform="matrix(1 0 0 1 52.8121 234.9473)" class="st1"><tspan x="0" y="0" class="st49 st51">Welcome to Kershaw, Tom,</tspan><tspan x="0" y="75.9" class="st49 st51">Eden, Alphan, Yaron!</tspan></text>
	<text transform="matrix(1 0 0 1 50.8111 673.6982)" class="st1 st52 st53">moz://a</text>
	<text transform="matrix(1 0 0 1 183.1385 673.6981)" class="st1 st54 st55">Berlin</text>
</g>
</svg>
